<?xml version="1.0" standalone="no"?>
<!DOCTYPE svg PUBLIC "-//W3C//DTD SVG 1.1//EN" "http://www.w3.org/Graphics/SVG/1.1/DTD/svg11.dtd" >
<svg xmlns="http://www.w3.org/2000/svg">
    <defs>
        <font id="HelveticaNeueCyr-Light">
            <font-face font-family="HelveticaNeueCyr-Light"
                       units-per-em="1000"
                       ascent="714"
                       descent="-191"
                       bbox="-33 -214 1051 902"
                    />
            <missing-glyph horiz-adv-x="0" />
            
            <glyph glyph-name="!" unicode="&#x21;" horiz-adv-x="158" d=" M154,712 L154,503 L139,179 L102,179 L87,503 L87,712 M158,99 L158,0 L83,0 L83,99"/> 
            <glyph glyph-name="&quot;" unicode="&#x22;" horiz-adv-x="286" d=" M131,411 L91,411 L84,691 L138,691 M279,411 L240,411 L233,691 L286,691"/> 
            <glyph glyph-name="#" unicode="&#x23;" horiz-adv-x="540" d=" M146,0 L92,0 L131,211 L18,211 L17,259 L140,259 L172,433 L59,433 L59,481 L181,481 L220,691 L274,691 L235,481 L372,481 L411,691 L465,691 L426,481 L540,481 L540,433 L417,433 L385,259 L498,259 L499,211 L376,211 L337,0 L283,0 L322,211 L185,211 M331,259 L363,433 L226,433 L194,259"/> 
            <glyph glyph-name="$" unicode="&#x24;" horiz-adv-x="525" d=" M292,782 L292,710 Q391,709 447.5,660 Q504,611 504,525 L504,515 L443,515 Q443,587 404.5,620.5 Q366,654 292,658 L292,385 Q525,351 525,184 Q525,94 461,39.5 Q397,-15 292,-15 L292,-102 L255,-102 L255,-15 Q142,-13 82.5,43.5 Q23,100 23,206 L23,211 L85,211 L85,199 Q85,47 255,36 L255,334 Q152,356 98,396 Q44,436 44,520 Q44,602 100.5,653 Q157,704 255,710 L255,782 M255,393 L255,657 Q185,652 145,617 Q105,582 105,525 Q105,415 255,393 M292,326 L292,35 Q371,36 417,76.5 Q463,117 463,183 Q463,219 449.5,244.5 Q436,270 408.5,285.5 Q381,301 356.5,309 Q332,317 292,326"/> 
            <glyph glyph-name="%" unicode="&#x25;" horiz-adv-x="825" d=" M678,728 L254,-32 L202,-32 L627,728 M153,708 Q305,708 345,661 Q385,614 385,525 Q385,433 343.5,382 Q302,331 226,331 Q149,331 108.5,380 Q68,429 68,521 Q68,609 153,708 M331,665 Q123,665 123,517 Q123,448 149.5,411 Q176,374 226,374 Q276,374 303.5,413 Q331,452 331,523 M593,364 Q745,364 785,317 Q825,270 825,181 Q825,89 783.5,38 Q742,-13 666,-13 Q589,-13 548.5,36 Q508,85 508,177 Q508,265 593,364 M771,321 Q563,321 563,173 Q563,104 589.5,67 Q616,30 666,30 Q716,30 743.5,69 Q771,108 771,179"/> 
            <glyph glyph-name="&amp;" unicode="&#x26;" horiz-adv-x="620" d=" M535,315 Q533,275 521,228.5 Q509,182 492,151 L620,0 L540,0 L459,99 Q384,-14 251,-14 Q157,-14 97.5,39.5 Q38,93 38,179 Q38,308 214,396 Q188,429 173,449.5 Q158,470 142.5,504 Q127,538 127,568 Q127,631 171.5,671 Q216,711 287,711 Q355,711 398.5,671 Q442,631 442,570 Q442,510 404,467 Q366,424 302,383 L452,198 Q473,253 476,315 M268,424 Q382,489 382,566 Q382,606 354,633 Q326,660 285,660 Q242,660 214,634 Q186,608 186,569 Q186,542 198.5,518 Q211,494 235.5,465 Q260,436 268,424 M248,356 Q171,307 147,283 Q101,237 101,180 Q101,121 146,79.5 Q191,38 256,38 Q359,38 423,141"/> 
            <glyph glyph-name="'" unicode="&#x27;" horiz-adv-x="166" d=" M159,411 L119,411 L112,691 L166,691"/> 
            <glyph glyph-name="(" unicode="&#x28;" horiz-adv-x="242" d=" M242,-191 L192,-191 Q120,-64 85.5,37.5 Q51,139 51,262 Q51,377 89,504 Q127,631 192,718 L242,718 Q114,514 114,261 Q114,18 242,-191"/> 
            <glyph glyph-name=")" unicode="&#x29;" horiz-adv-x="192" d=" M192,262 Q192,139 157.5,37.5 Q123,-64 51,-191 L1,-191 Q129,18 129,261 Q129,514 1,718 L51,718 Q116,631 154,504 Q192,377 192,262"/> 
            <glyph glyph-name="*" unicode="&#x2A;" horiz-adv-x="325" d=" M325,606 L208,567 L280,469 L249,445 L175,546 L102,446 L69,470 L141,567 L27,606 L40,644 L155,603 L155,725 L196,725 L196,603 L311,644"/> 
            <glyph glyph-name="+" unicode="&#x2B;" horiz-adv-x="548" d=" M272,0 L272,217 L51,217 L51,266 L272,266 L272,483 L326,483 L326,266 L548,266 L548,217 L326,217 L326,0"/> 
            <glyph glyph-name="," unicode="&#x2C;" horiz-adv-x="181" d=" M181,103 L181,29 Q181,-37 164,-78 Q147,-119 93,-138 L93,-96 Q137,-78 138,0 L99,0 L99,103"/> 
            <glyph glyph-name="-" unicode="&#x2D;" horiz-adv-x="311" d=" M311,305 L311,244 L60,244 L60,305"/> 
            <glyph glyph-name="." unicode="&#x2E;" horiz-adv-x="181" d=" M181,103 L181,0 L99,0 L99,103"/> 
            <glyph glyph-name="/" unicode="&#x2F;" horiz-adv-x="350" d=" M350,729 L38,-17 L-15,-17 L298,729"/> 
            <glyph glyph-name="0" unicode="&#x30;" horiz-adv-x="522" d=" M277,703 Q522,703 522,340 Q522,-16 278,-16 Q34,-16 34,335 Q34,703 277,703 M278,647 Q231,647 196.5,625.5 Q162,604 144,573 Q126,542 115,496 Q104,450 101.5,414 Q99,378 99,333 Q99,38 278,38 Q456,38 456,342 Q456,647 278,647"/> 
            <glyph glyph-name="1" unicode="&#x31;" horiz-adv-x="345" d=" M345,698 L345,0 L279,0 L279,520 L98,520 L98,568 Q136,569 153,570.5 Q170,572 195,576 Q220,580 231.5,588 Q243,596 257,610 Q271,624 279,645.5 Q287,667 294,698"/> 
            <glyph glyph-name="2" unicode="&#x32;" horiz-adv-x="497" d=" M497,56 L497,0 L36,0 Q38,28 42.5,52.5 Q47,77 58.5,99 Q70,121 78.5,137 Q87,153 107.5,173 Q128,193 138,203 Q148,213 175.5,232.5 Q203,252 213,258.5 Q223,265 256,287 Q292,311 306,320.5 Q320,330 350,354.5 Q380,379 393,398 Q406,417 418,445.5 Q430,474 430,505 Q430,570 387.5,609.5 Q345,649 275,649 Q190,649 152.5,596 Q115,543 115,457 L53,457 L53,466 Q53,577 113,640.5 Q173,704 278,704 Q376,704 435,650 Q494,596 494,506 Q494,477 485.5,449.5 Q477,422 468,402 Q459,382 436,357.5 Q413,333 400.5,320.5 Q388,308 356,285.5 Q324,263 313,256 Q302,249 267,226 Q228,201 213.5,191 Q199,181 169.5,156.5 Q140,132 126,108 Q112,84 107,55 Q111,55 116.5,55.5 Q122,56 124,56"/> 
            <glyph glyph-name="3" unicode="&#x33;" horiz-adv-x="512" d=" M50,475 Q51,583 111,643 Q171,703 277,703 Q371,703 429,653.5 Q487,604 487,524 Q487,467 455.5,426 Q424,385 369,372 Q438,358 475,313.5 Q512,269 512,201 Q512,104 445.5,44 Q379,-16 271,-16 Q162,-16 97.5,44.5 Q33,105 33,207 L33,223 L94,223 L94,220 Q94,135 141.5,87 Q189,39 273,39 Q350,39 399,82.5 Q448,126 448,194 Q448,273 396.5,307 Q345,341 264,341 Q245,341 230,340 L230,393 L256,393 Q308,393 340,404 Q423,435 423,521 Q423,580 382.5,615 Q342,650 274,650 Q198,650 155,604.5 Q112,559 109,475"/> 
            <glyph glyph-name="4" unicode="&#x34;" horiz-adv-x="517" d=" M517,226 L517,174 L411,174 L411,0 L353,0 L353,174 L30,174 L30,233 L358,700 L411,700 L411,226 M353,226 L353,502 Q353,569 354,617 Q244,446 81,226"/> 
            <glyph glyph-name="5" unicode="&#x35;" horiz-adv-x="509" d=" M474,691 L474,635 L171,635 L121,393 Q176,463 280,463 Q380,463 444.5,397 Q509,331 509,228 Q509,124 441,54.5 Q373,-15 268,-15 Q164,-15 101,43.5 Q38,102 36,200 L98,200 Q102,126 147.5,82 Q193,38 268,38 Q344,38 394.5,91 Q445,144 445,224 Q445,306 395,357.5 Q345,409 267,409 Q166,409 112,328 L56,330 L125,691"/> 
            <glyph glyph-name="6" unicode="&#x36;" horiz-adv-x="520" d=" M503,522 L440,522 Q431,582 392.5,616.5 Q354,651 293,651 Q245,651 209,629 Q173,607 154,576 Q135,545 122.5,497.5 Q110,450 106.5,414.5 Q103,379 101,332 Q129,391 179.5,422.5 Q230,454 296,454 Q394,454 457,389 Q520,324 520,224 Q520,120 454,52 Q388,-16 286,-16 Q223,-16 172,12 Q121,40 89,91 Q41,169 41,328 Q41,510 106.5,607.5 Q172,705 295,705 Q383,705 437.5,657.5 Q492,610 503,522 M284,401 Q211,401 163,350.5 Q115,300 115,223 Q115,143 163.5,91 Q212,39 286,39 Q360,39 407.5,90 Q455,141 455,220 Q455,300 407.5,350.5 Q360,401 284,401"/> 
            <glyph glyph-name="7" unicode="&#x37;" horiz-adv-x="502" d=" M502,691 L502,634 Q379,504 305,342 Q231,180 218,0 L150,0 Q159,170 238,339 Q317,508 441,632 L51,632 L51,691"/> 
            <glyph glyph-name="8" unicode="&#x38;" horiz-adv-x="518" d=" M180,378 Q126,393 96,432.5 Q66,472 66,528 Q66,609 124,658 Q182,707 278,707 Q374,707 431.5,659 Q489,611 489,532 Q489,414 376,378 Q442,364 480,317.5 Q518,271 518,203 Q518,103 453.5,45 Q389,-13 277,-13 Q168,-13 103,44 Q38,101 38,197 Q38,267 75,314.5 Q112,362 180,378 M278,651 Q209,651 168.5,617 Q128,583 128,525 Q128,468 169,434.5 Q210,401 278,401 Q347,401 387,434.5 Q427,468 427,526 Q427,585 387.5,618 Q348,651 278,651 M276,351 Q197,351 149.5,309 Q102,267 102,199 Q102,127 150,83.5 Q198,40 278,40 Q358,40 405.5,83 Q453,126 453,199 Q453,268 405,309.5 Q357,351 276,351"/> 
            <glyph glyph-name="9" unicode="&#x39;" horiz-adv-x="512" d=" M52,167 L113,167 Q122,108 163,73.5 Q204,39 265,39 Q430,39 448,294 Q450,317 450,346 L450,365 Q397,236 258,236 Q160,236 97,301 Q34,366 34,467 Q34,571 100,638.5 Q166,706 267,706 Q394,706 460,606 Q512,526 512,363 Q512,255 492,180 Q467,86 407.5,35.5 Q348,-15 264,-15 Q175,-15 117,34.5 Q59,84 52,167 M265,651 Q193,651 145.5,599.5 Q98,548 98,470 Q98,391 145,341.5 Q192,292 266,292 Q341,292 388.5,341.5 Q436,391 436,469 Q436,548 387.5,599.5 Q339,651 265,651"/> 
            <glyph glyph-name=":" unicode="&#x3A;" horiz-adv-x="181" d=" M181,103 L181,0 L99,0 L99,103 M181,501 L181,398 L99,398 L99,501"/> 
            <glyph glyph-name=";" unicode="&#x3B;" horiz-adv-x="181" d=" M181,501 L181,398 L99,398 L99,501 M181,103 L181,29 Q181,-37 164,-78 Q147,-119 93,-138 L93,-96 Q137,-78 138,0 L99,0 L99,103"/> 
            <glyph glyph-name="&lt;" unicode="&#x3C;" horiz-adv-x="545" d=" M48,233 L48,287 L545,487 L545,433 L110,260 L545,88 L545,35"/> 
            <glyph glyph-name="=" unicode="&#x3D;" horiz-adv-x="548" d=" M51,320 L51,368 L548,368 L548,320 M51,137 L51,185 L548,185 L548,137"/> 
            <glyph glyph-name="&gt;" unicode="&#x3E;" horiz-adv-x="552" d=" M552,233 L55,35 L55,88 L490,260 L55,433 L55,487 L552,287"/> 
            <glyph glyph-name="?" unicode="&#x3F;" horiz-adv-x="478" d=" M49,490 Q49,593 105.5,659.5 Q162,726 270,726 Q363,726 420.5,675 Q478,624 478,542 Q478,508 470,480.5 Q462,453 439.5,424.5 Q417,396 405.5,384.5 Q394,373 358,339 Q316,299 305.5,269.5 Q295,240 295,176 L235,176 Q235,260 253,296 Q271,332 336,396 Q344,404 349,409 Q412,472 412,538 Q412,597 372.5,634 Q333,671 269,671 Q188,671 149,619 Q110,567 110,490 M302,100 L302,0 L227,0 L227,100"/> 
            <glyph glyph-name="@" unicode="&#x40;" horiz-adv-x="770" d=" M704,118 L724,92 Q579,-13 419,-13 Q256,-13 143,85 Q30,183 30,344 Q30,506 146.5,615 Q263,724 436,724 Q584,724 677,642 Q770,560 770,430 Q770,325 709.5,247.5 Q649,170 567,170 Q533,170 512,189 Q491,208 491,239 Q491,249 498,276 Q444,170 351,170 Q292,170 255,211 Q218,252 218,317 Q218,413 277,485 Q336,557 415,557 Q465,557 497.5,532 Q530,507 538,462 L562,543 L612,543 L555,353 Q532,278 532,249 Q532,229 545,217 Q558,205 580,205 Q639,205 687,274.5 Q735,344 735,430 Q735,545 652,617 Q569,689 435,689 Q278,689 172,589.5 Q66,490 66,343 Q66,198 169.5,110 Q273,22 420,22 Q571,22 704,118 M513,426 Q513,469 489,495.5 Q465,522 426,522 Q369,522 323,459 Q277,396 277,318 Q277,266 301,235.5 Q325,205 365,205 Q409,205 444.5,245 Q480,285 496.5,334.5 Q513,384 513,426"/> 
            <glyph glyph-name="A" unicode="&#x41;" horiz-adv-x="638" d=" M354,714 L638,0 L563,0 L477,224 L151,224 L64,0 L-9,0 L279,714 M456,279 L316,650 L172,279"/> 
            <glyph glyph-name="B" unicode="&#x42;" horiz-adv-x="628" d=" M72,712 L377,712 Q473,712 536.5,668 Q600,624 600,534 Q600,477 564.5,433 Q529,389 477,377 Q543,364 585.5,322 Q628,280 628,204 Q628,105 559.5,52.5 Q491,0 387,0 L72,0 M138,654 L138,397 L364,397 Q435,397 484,427 Q533,457 533,525 Q533,565 517.5,592 Q502,619 473,632 Q444,645 414.5,649.5 Q385,654 346,654 M138,342 L138,58 L351,58 Q394,58 426.5,63 Q459,68 491.5,82.5 Q524,97 542,127.5 Q560,158 560,203 Q560,246 541.5,275.5 Q523,305 489,318.5 Q455,332 422,337 Q389,342 347,342"/> 
            <glyph glyph-name="C" unicode="&#x43;" horiz-adv-x="671" d=" M671,273 Q660,141 576.5,62.5 Q493,-16 365,-16 Q217,-16 128,85 Q39,186 39,355 Q39,513 127.5,621 Q216,729 371,729 Q479,729 564.5,665.5 Q650,602 662,498 L594,498 Q578,577 517,623.5 Q456,670 369,670 Q251,670 178.5,583.5 Q106,497 106,355 Q106,213 177.5,127.5 Q249,42 367,42 Q470,42 531,105.5 Q592,169 604,273"/> 
            <glyph glyph-name="D" unicode="&#x44;" horiz-adv-x="647" d=" M71,712 L329,712 Q489,712 568,619.5 Q647,527 647,369 Q647,207 570,103.5 Q493,0 335,0 L71,0 M139,654 L139,58 L318,58 Q579,58 579,365 Q579,501 514.5,577.5 Q450,654 329,654"/> 
            <glyph glyph-name="E" unicode="&#x45;" horiz-adv-x="570" d=" M566,712 L566,654 L140,654 L140,397 L539,397 L539,340 L140,340 L140,58 L570,58 L570,0 L72,0 L72,712"/> 
            <glyph glyph-name="F" unicode="&#x46;" horiz-adv-x="525" d=" M525,712 L525,654 L138,654 L138,398 L482,398 L482,340 L138,340 L138,0 L71,0 L71,712"/> 
            <glyph glyph-name="G" unicode="&#x47;" horiz-adv-x="683" d=" M683,362 L683,0 L638,0 L626,101 L624,133 Q592,62 526.5,22.5 Q461,-17 374,-17 Q225,-17 132,84.5 Q39,186 39,349 Q39,517 132.5,622 Q226,727 377,727 Q492,727 574,664.5 Q656,602 673,492 L608,492 Q593,574 528.5,621.5 Q464,669 378,669 Q254,669 180,582 Q106,495 106,350 Q106,209 180.5,124.5 Q255,40 377,40 Q472,40 538.5,95.5 Q605,151 619,243 Q623,271 623,306 L379,306 L379,362"/> 
            <glyph glyph-name="H" unicode="&#x48;" horiz-adv-x="632" d=" M632,712 L632,0 L565,0 L565,344 L139,344 L139,0 L71,0 L71,712 L139,712 L139,402 L565,402 L565,712"/> 
            <glyph glyph-name="I" unicode="&#x49;" horiz-adv-x="145" d=" M145,712 L145,0 L77,0 L77,712"/> 
            <glyph glyph-name="J" unicode="&#x4A;" horiz-adv-x="430" d=" M430,712 L430,193 Q430,-16 229,-16 Q121,-16 72.5,39 Q24,94 24,202 Q24,216 25,230 L90,230 L90,209 Q90,124 118.5,82 Q147,40 229,40 Q309,40 336,84 Q363,128 363,211 L363,712"/> 
            <glyph glyph-name="K" unicode="&#x4B;" horiz-adv-x="659" d=" M643,712 L322,421 L659,0 L572,0 L274,375 L138,251 L138,0 L71,0 L71,712 L138,712 L138,329 L553,712"/> 
            <glyph glyph-name="L" unicode="&#x4C;" horiz-adv-x="541" d=" M541,58 L541,0 L73,0 L73,712 L141,712 L141,58"/> 
            <glyph glyph-name="M" unicode="&#x4D;" horiz-adv-x="763" d=" M763,712 L763,0 L698,0 L698,430 Q698,534 706,654 Q685,588 659,525 L449,0 L388,0 L175,519 Q153,572 128,650 Q136,533 136,432 L136,0 L71,0 L71,712 L163,712 L370,204 Q380,179 419,70 Q424,83 440,130 Q456,177 466,202 L670,712"/> 
            <glyph glyph-name="N" unicode="&#x4E;" horiz-adv-x="632" d=" M632,712 L632,0 L557,0 L226,478 Q160,574 132,630 Q137,559 137,460 L137,0 L71,0 L71,712 L146,712 L479,229 Q535,148 572,80 Q567,237 567,268 L567,712"/> 
            <glyph glyph-name="O" unicode="&#x4F;" horiz-adv-x="706" d=" M370,729 Q519,729 612.5,625 Q706,521 706,354 Q706,188 613,85.5 Q520,-17 369,-17 Q219,-17 127,86 Q35,189 35,356 Q35,523 127.5,626 Q220,729 370,729 M369,670 Q250,670 176.5,584 Q103,498 103,358 Q103,215 176,128.5 Q249,42 370,42 Q491,42 564.5,128 Q638,214 638,355 Q638,496 564,583 Q490,670 369,670"/> 
            <glyph glyph-name="P" unicode="&#x50;" horiz-adv-x="604" d=" M75,712 L380,712 Q483,712 543.5,660.5 Q604,609 604,512 Q604,410 543,357 Q482,304 378,304 L143,304 L143,0 L75,0 M143,654 L143,361 L359,361 Q438,361 487,396.5 Q536,432 536,507 Q536,581 491,617.5 Q446,654 366,654"/> 
            <glyph glyph-name="Q" unicode="&#x51;" horiz-adv-x="705" d=" M701,-5 L667,-48 L555,37 Q485,-18 371,-18 Q221,-18 128,84.5 Q35,187 35,352 Q35,519 128,622.5 Q221,726 370,726 Q519,726 612,623 Q705,520 705,355 Q705,177 600,72 M549,110 Q638,209 638,356 Q638,495 564,581 Q490,667 370,667 Q251,667 177,580.5 Q103,494 103,354 Q102,211 176,125.5 Q250,40 374,40 Q448,40 503,78 L409,149 L444,192"/> 
            <glyph glyph-name="R" unicode="&#x52;" horiz-adv-x="636" d=" M72,712 L394,712 Q495,712 555.5,664.5 Q616,617 616,520 Q616,451 579.5,405.5 Q543,360 477,344 Q542,332 569.5,294.5 Q597,257 602,183 Q602,181 603,156 Q604,131 605.5,113 Q607,95 610.5,70 Q614,45 620.5,27 Q627,9 636,0 L559,0 Q550,11 546,39 Q542,67 540,111 Q538,155 538,158 Q531,255 491,286.5 Q451,318 349,318 L140,318 L140,0 L72,0 M140,654 L140,372 L341,372 Q385,372 417,377 Q449,382 481.5,396 Q514,410 531.5,440.5 Q549,471 549,516 Q549,654 372,654"/> 
            <glyph glyph-name="S" unicode="&#x53;" horiz-adv-x="591" d=" M569,507 L503,507 Q499,586 446.5,627.5 Q394,669 305,669 Q221,669 174,634 Q127,599 127,535 Q127,512 132.5,494.5 Q138,477 152.5,464 Q167,451 179.5,442.5 Q192,434 220,425.5 Q248,417 265,412.5 Q282,408 319,400 Q359,391 384,385 Q409,379 441,369 Q473,359 492.5,349 Q512,339 533,324 Q554,309 565,291 Q576,273 583.5,248.5 Q591,224 591,194 Q591,121 550.5,72 Q510,23 452,4 Q394,-15 323,-15 Q190,-15 114.5,50 Q39,115 39,229 L39,235 L104,235 Q104,138 163.5,89 Q223,40 328,40 Q420,40 473,79 Q526,118 526,187 Q526,254 475.5,282.5 Q425,311 285,344 Q240,354 218.5,360 Q197,366 161,381 Q125,396 107.5,413.5 Q90,431 76,461 Q62,491 62,531 Q62,621 128.5,673.5 Q195,726 310,726 Q426,726 495,670.5 Q564,615 569,507"/> 
            <glyph glyph-name="T" unicode="&#x54;" horiz-adv-x="562" d=" M562,712 L562,654 L312,654 L312,0 L244,0 L244,654 L-6,654 L-6,712"/> 
            <glyph glyph-name="U" unicode="&#x55;" horiz-adv-x="620" d=" M620,712 L620,267 Q620,129 551.5,57 Q483,-15 346,-15 Q206,-15 135.5,57 Q65,129 65,269 L65,712 L133,712 L133,286 Q133,163 179.5,102.5 Q226,42 347,42 Q409,42 450,59 Q491,76 513,110 Q535,144 543.5,186 Q552,228 552,287 L552,712"/> 
            <glyph glyph-name="V" unicode="&#x56;" horiz-adv-x="601" d=" M601,712 L337,0 L258,0 L-9,712 L67,712 L253,200 Q279,128 298,58 Q304,76 319,124.5 Q334,173 344,199 L529,712"/> 
            <glyph glyph-name="W" unicode="&#x57;" horiz-adv-x="904" d=" M904,712 L707,0 L634,0 L489,501 Q461,600 453,648 Q445,622 432.5,573 Q420,524 414,503 L272,0 L198,0 L1,712 L72,712 L205,218 Q218,169 238,71 Q249,133 274,218 L415,712 L492,712 L636,211 Q663,118 670,71 Q674,87 684.5,135.5 Q695,184 702,210 L836,712"/> 
            <glyph glyph-name="X" unicode="&#x58;" horiz-adv-x="583" d=" M569,712 L326,366 L583,0 L501,0 L323,255 Q302,285 296,296.5 Q290,308 285,316 Q280,311 272.5,300 Q265,289 256,275 Q247,261 244,256 L64,0 L-14,0 L245,366 L2,712 L82,712 L241,484 Q250,471 264.5,446.5 Q279,422 285,413 Q310,449 331,485 L494,712"/> 
            <glyph glyph-name="Y" unicode="&#x59;" horiz-adv-x="622" d=" M622,712 L340,294 L340,0 L273,0 L273,294 L-10,712 L71,712 L270,414 L309,351 Q326,383 345,411 L545,712"/> 
            <glyph glyph-name="Z" unicode="&#x5A;" horiz-adv-x="562" d=" M552,712 L552,653 L82,58 L562,58 L562,0 L5,0 L5,61 L475,654 L38,654 L38,712"/> 
            <glyph glyph-name="[" unicode="&#x5B;" horiz-adv-x="238" d=" M238,722 L238,673 L135,673 L135,-134 L238,-134 L238,-184 L76,-184 L76,722"/> 
            <glyph glyph-name="\" unicode="&#x5C;" horiz-adv-x="350" d=" M350,-17 L297,-17 L-15,729 L37,729"/> 
            <glyph glyph-name="]" unicode="&#x5D;" horiz-adv-x="165" d=" M165,722 L165,-184 L3,-184 L3,-134 L106,-134 L106,672 L3,672 L3,722"/> 
            <glyph glyph-name="^" unicode="&#x5E;" horiz-adv-x="494" d=" M106,297 L274,712 L327,712 L494,297 L437,297 L299,649 L164,297"/> 
            <glyph glyph-name="_" unicode="&#x5F;" horiz-adv-x="500" d=" M0,-125 L0,-75 L500,-75 L500,-125"/> 
            <glyph glyph-name="`" unicode="&#x60;" horiz-adv-x="151" d=" M47,734 L151,593 L101,593 L-33,734"/> 
            <glyph glyph-name="a" unicode="&#x61;" horiz-adv-x="511" d=" M511,51 L511,3 Q488,-5 461,-5 Q420,-5 407,20 Q394,45 394,89 Q329,-14 200,-14 Q121,-14 76.5,24 Q32,62 32,130 Q32,269 223,289 Q233,290 251,291.5 Q269,293 277.5,294 Q286,295 299.5,296.5 Q313,298 319.5,299 Q326,300 335.5,302 Q345,304 350.5,306 Q356,308 362,310.5 Q368,313 373,316 Q391,328 391,365 Q391,426 357,451 Q323,476 257,476 Q192,476 157.5,446.5 Q123,417 117,355 L57,355 Q61,438 115,483 Q169,528 264,528 Q352,528 402.5,490 Q453,452 453,380 L453,100 Q453,80 454,71.5 Q455,63 462.5,55.5 Q470,48 487,48 Q500,48 511,51 M391,280 Q382,270 361.5,263.5 Q341,257 324,254 Q307,251 266,246 Q256,245 251,244 Q219,240 198.5,235 Q178,230 151.5,218.5 Q125,207 111.5,186.5 Q98,166 98,136 Q98,91 130,64.5 Q162,38 216,38 Q289,38 340,81.5 Q391,125 391,196"/> 
            <glyph glyph-name="b" unicode="&#x62;" horiz-adv-x="535" d=" M122,712 L122,417 Q145,471 193.5,500.5 Q242,530 305,530 Q410,530 472.5,456 Q535,382 535,258 Q535,132 472,58.5 Q409,-15 302,-15 Q236,-15 188,14.5 Q140,44 118,100 L118,0 L61,0 L61,712 M296,477 Q215,477 167.5,417.5 Q120,358 120,257 Q120,156 168,96 Q216,36 297,36 Q376,36 423.5,96 Q471,156 471,257 Q471,358 423.5,417.5 Q376,477 296,477"/> 
            <glyph glyph-name="c" unicode="&#x63;" horiz-adv-x="491" d=" M491,184 Q478,94 421.5,39.5 Q365,-15 274,-15 Q166,-15 101,58 Q36,131 36,252 Q36,378 101.5,453.5 Q167,529 276,529 Q365,529 420.5,482 Q476,435 487,352 L423,352 Q398,477 277,477 Q196,477 148.5,417.5 Q101,358 101,257 Q101,156 147,96.5 Q193,37 271,37 Q336,37 377,75.5 Q418,114 428,184"/> 
            <glyph glyph-name="d" unicode="&#x64;" horiz-adv-x="512" d=" M512,712 L512,0 L455,0 L455,101 Q432,44 383.5,14.5 Q335,-15 270,-15 Q163,-15 100.5,58.5 Q38,132 38,257 Q38,381 100.5,455 Q163,529 268,529 Q402,529 451,418 L451,712 M275,477 Q196,477 148.5,417.5 Q101,358 101,258 Q101,156 148.5,96 Q196,36 276,36 Q358,36 405.5,95 Q453,154 453,257 Q453,349 408,413 Q363,477 275,477"/> 
            <glyph glyph-name="e" unicode="&#x65;" horiz-adv-x="493" d=" M488,169 Q471,82 414,32.5 Q357,-17 268,-17 Q161,-17 96.5,56 Q32,129 32,251 Q32,373 97.5,450.5 Q163,528 267,528 Q376,528 434.5,451 Q493,374 493,260 L493,242 L96,242 Q96,153 139.5,93.5 Q183,34 270,34 Q397,34 427,169 M430,293 Q425,379 381,427.5 Q337,476 265,476 Q187,476 146.5,425 Q106,374 96,293"/> 
            <glyph glyph-name="f" unicode="&#x66;" horiz-adv-x="272" d=" M272,713 L272,660 Q251,663 230,663 Q208,663 193.5,658 Q179,653 171.5,646.5 Q164,640 160.5,624.5 Q157,609 156.5,599 Q156,589 156,565 L156,514 L259,514 L259,463 L156,463 L156,0 L93,0 L93,463 L5,463 L5,514 L93,514 L93,573 Q93,646 122.5,681.5 Q152,717 224,717 Q243,717 272,713"/> 
            <glyph glyph-name="g" unicode="&#x67;" horiz-adv-x="496" d=" M496,514 L496,28 Q496,-202 266,-202 Q172,-202 117,-161.5 Q62,-121 57,-47 L120,-47 Q135,-153 269,-153 Q360,-153 398.5,-106 Q437,-59 437,33 L437,119 Q385,6 259,6 Q157,6 96.5,75.5 Q36,145 36,261 Q36,382 98.5,455 Q161,528 264,528 Q386,528 439,417 L439,514 M344,474 Q190,474 144.5,418 Q99,362 99,266 Q99,172 144,116 Q189,60 265,60 Q344,60 390,117.5 Q436,175 436,273 Q436,365 344,474"/> 
            <glyph glyph-name="h" unicode="&#x68;" horiz-adv-x="479" d=" M122,712 Q122,456 121,417 Q176,527 299,527 Q388,527 433.5,478.5 Q479,430 479,340 L479,0 L416,0 L416,332 Q416,474 284,474 Q201,474 161.5,417.5 Q122,361 122,271 L122,0 L60,0 L60,712"/> 
            <glyph glyph-name="i" unicode="&#x69;" horiz-adv-x="124" d=" M124,715 L124,612 L61,612 L61,715 M124,514 L124,0 L61,0 L61,514"/> 
            <glyph glyph-name="j" unicode="&#x6A;" horiz-adv-x="127" d=" M127,514 L127,-34 Q127,-77 123.5,-102 Q120,-127 108.5,-151.5 Q97,-176 71,-186.5 Q45,-197 3,-197 Q-7,-197 -28,-194 L-28,-142 Q-17,-143 -4,-143 Q23,-143 35.5,-138.5 Q48,-134 56.5,-111 Q65,-88 65,-40 L65,514 M127,716 L127,613 L65,613 L65,716"/> 
            <glyph glyph-name="k" unicode="&#x6B;" horiz-adv-x="508" d=" M493,514 L273,325 L508,0 L429,0 L224,282 L122,195 L122,0 L62,0 L62,712 L122,712 L122,263 L409,514"/> 
            <glyph glyph-name="l" unicode="&#x6C;" horiz-adv-x="124" d=" M124,712 L124,0 L62,0 L62,712"/> 
            <glyph glyph-name="m" unicode="&#x6D;" horiz-adv-x="774" d=" M120,514 L120,424 Q153,476 193,502 Q233,528 291,528 Q347,528 385.5,501.5 Q424,475 438,428 Q491,528 609,528 Q679,528 726.5,487.5 Q774,447 774,367 L774,0 L711,0 L711,350 Q711,472 592,472 Q524,472 486.5,429.5 Q449,387 449,315 L449,0 L387,0 L387,345 Q387,472 274,472 Q199,472 161.5,422 Q124,372 124,292 L124,0 L61,0 L61,514"/> 
            <glyph glyph-name="n" unicode="&#x6E;" horiz-adv-x="479" d=" M119,514 L119,417 Q151,474 193.5,501 Q236,528 301,528 Q381,528 430,484 Q479,440 479,350 L479,0 L416,0 L416,330 Q416,473 285,473 Q211,473 167,423.5 Q123,374 123,278 L123,0 L60,0 L60,514"/> 
            <glyph glyph-name="o" unicode="&#x6F;" horiz-adv-x="521" d=" M279,529 Q390,529 455.5,455 Q521,381 521,255 Q521,130 456,57.5 Q391,-15 279,-15 Q167,-15 100.5,58.5 Q34,132 34,257 Q34,381 100.5,455 Q167,529 279,529 M360,476 Q196,476 147,416.5 Q98,357 98,257 Q98,155 146.5,96 Q195,37 280,37 Q362,37 410,96 Q458,155 458,256 Q458,357 360,476"/> 
            <glyph glyph-name="p" unicode="&#x70;" horiz-adv-x="536" d=" M120,514 L120,415 Q176,529 304,529 Q409,529 472.5,454 Q536,379 536,255 Q536,133 473,58.5 Q410,-16 306,-16 Q176,-16 124,95 L124,-192 L63,-192 L63,514 M377,477 Q215,477 168.5,418 Q122,359 122,256 Q122,155 169.5,96 Q217,37 298,37 Q377,37 424.5,96.5 Q472,156 472,255 Q472,356 377,477"/> 
            <glyph glyph-name="q" unicode="&#x71;" horiz-adv-x="511" d=" M511,514 L511,-191 L449,-191 Q449,14 450,96 Q398,-14 266,-14 Q161,-14 99.5,58.5 Q38,131 38,255 Q38,381 101.5,455.5 Q165,530 272,530 Q400,530 453,416 L453,514 M276,478 Q196,478 148.5,418 Q101,358 101,255 Q101,155 148,96.5 Q195,38 275,38 Q356,38 403.5,97.5 Q451,157 451,259 Q451,361 404.5,419.5 Q358,478 276,478"/> 
            <glyph glyph-name="r" unicode="&#x72;" horiz-adv-x="323" d=" M323,522 L323,458 Q319,458 313.5,458.5 Q308,459 306,459 Q248,459 202.5,425.5 Q157,392 142,337 Q130,290 130,210 L130,0 L68,0 L68,514 L127,514 L127,391 Q160,462 203,491.5 Q246,521 323,522"/> 
            <glyph glyph-name="s" unicode="&#x73;" horiz-adv-x="447" d=" M429,364 L368,364 Q359,476 229,476 Q174,476 141.5,453 Q109,430 109,391 Q109,372 116,358 Q123,344 132,335.5 Q141,327 163.5,319 Q186,311 202.5,306.5 Q219,302 256,294 Q289,286 309,281 Q329,276 358.5,263.5 Q388,251 405,236.5 Q422,222 434.5,197.5 Q447,173 447,142 Q447,71 390.5,27.5 Q334,-16 243,-16 Q144,-16 89,32 Q34,80 32,168 L93,168 Q93,104 133,70 Q173,36 245,36 Q308,36 346.5,63.5 Q385,91 385,136 Q385,160 372.5,178 Q360,196 339,206.5 Q318,217 297.5,223.5 Q277,230 254,235 Q247,236 244,237 Q237,239 212,244.5 Q187,250 177,252.5 Q167,255 145,262 Q123,269 113,275 Q103,281 87.5,292 Q72,303 64.5,315.5 Q57,328 51.5,345 Q46,362 46,383 Q46,450 96.5,489 Q147,528 235,528 Q323,528 376,486 Q429,444 429,364"/> 
            <glyph glyph-name="t" unicode="&#x74;" horiz-adv-x="265" d=" M265,514 L265,463 L159,463 L159,137 Q159,111 160,100.5 Q161,90 166.5,75.5 Q172,61 186,56 Q200,51 224,51 Q238,51 265,54 L265,0 Q234,-4 210,-4 Q117,-4 103,55 Q97,80 97,168 L97,463 L6,463 L6,514 L97,514 L97,671 L159,671 L159,514"/> 
            <glyph glyph-name="u" unicode="&#x75;" horiz-adv-x="475" d=" M475,514 L475,0 L417,0 L417,95 Q360,-15 236,-15 Q154,-15 106.5,32.5 Q59,80 59,172 L59,514 L122,514 L122,199 Q122,119 151.5,79.5 Q181,40 252,40 Q327,40 370,94.5 Q413,149 413,230 L413,514"/> 
            <glyph glyph-name="v" unicode="&#x76;" horiz-adv-x="459" d=" M459,514 L270,0 L202,0 L4,514 L71,514 L191,201 Q205,163 238,62 Q268,158 285,206 L396,514"/> 
            <glyph glyph-name="w" unicode="&#x77;" horiz-adv-x="733" d=" M733,514 L566,0 L498,0 L396,338 Q383,382 370,439 Q356,381 344,338 L244,0 L174,0 L7,514 L75,514 L173,201 Q182,174 209,68 Q239,188 243,203 L335,514 L407,514 L505,188 Q514,159 534,68 Q550,136 565,186 L668,514"/> 
            <glyph glyph-name="x" unicode="&#x78;" horiz-adv-x="481" d=" M460,514 L278,274 L481,0 L401,0 L264,188 Q261,192 256.5,198.5 Q252,205 247.5,212 Q243,219 238,227 Q227,209 212,189 L76,0 L1,0 L200,270 L16,514 L96,514 L207,364 Q213,357 223.5,340.5 Q234,324 239,316 Q268,358 272,364 L386,514"/> 
            <glyph glyph-name="y" unicode="&#x79;" horiz-adv-x="460" d=" M460,514 L258,-19 Q220,-121 192,-158 Q164,-195 106,-195 Q81,-195 51,-190 L51,-135 Q79,-142 96,-142 Q134,-142 153.5,-114 Q173,-86 198,-17 Q199,-13 200,-11.5 Q201,-10 202,-7 Q203,-4 204,-1.5 Q205,1 206,4 L-1,514 L68,514 L207,160 Q215,139 238,69 Q264,154 269,167 L396,514"/> 
            <glyph glyph-name="z" unicode="&#x7A;" horiz-adv-x="446" d=" M432,514 L432,470 L92,53 L446,53 L446,0 L16,0 L16,51 L350,461 L38,461 L38,514"/> 
            <glyph glyph-name="{" unicode="&#x7B;" horiz-adv-x="328" d=" M4,288 Q143,288 143,438 L143,514 Q143,620 183,668.5 Q223,717 328,723 L328,688 Q254,684 228,647 Q202,610 202,533 L202,468 Q202,427 197.5,398.5 Q193,370 180.5,341 Q168,312 141,294.5 Q114,277 73,271 Q116,263 143.5,246 Q171,229 183,200.5 Q195,172 198.5,144.5 Q202,117 202,73 L202,18 Q202,-67 227,-104.5 Q252,-142 328,-146 L328,-181 Q218,-174 180.5,-123.5 Q143,-73 143,41 L143,104 Q143,182 113,213.5 Q83,245 4,253"/> 
            <glyph glyph-name="|" unicode="&#x7C;" horiz-adv-x="138" d=" M84,-214 L84,786 L138,786 L138,-214"/> 
            <glyph glyph-name="}" unicode="&#x7D;" horiz-adv-x="328" d=" M328,253 Q249,245 219,213.5 Q189,182 189,104 L189,41 Q189,-73 151.5,-123.5 Q114,-174 4,-181 L4,-146 Q80,-142 105,-104.5 Q130,-67 130,18 L130,73 Q130,117 133.5,144.5 Q137,172 149,200.5 Q161,229 188.5,246 Q216,263 259,271 Q218,277 191,294.5 Q164,312 151.5,341 Q139,370 134.5,398.5 Q130,427 130,468 L130,533 Q130,610 104,647 Q78,684 4,688 L4,723 Q109,717 149,668.5 Q189,620 189,514 L189,438 Q189,288 328,288"/> 
            <glyph glyph-name="~" unicode="&#x7E;" horiz-adv-x="562" d=" M562,320 Q557,265 527,228 Q497,191 444,191 Q405,191 308,224 Q303,226 265,239.5 Q227,253 203.5,259 Q180,265 161,265 Q130,265 107,242 Q84,219 79,182 L40,182 Q51,242 77.5,277.5 Q104,313 161,313 Q201,313 316,273 Q320,271 344,262.5 Q368,254 379.5,250 Q391,246 410,242 Q429,238 443,238 Q508,238 526,320"/> 
            <glyph glyph-name="£" unicode="&#xA3;" horiz-adv-x="542" d=" M514,475 L452,475 Q450,563 405.5,609.5 Q361,656 280,656 Q207,656 161.5,617.5 Q116,579 116,517 Q116,503 119,488.5 Q122,474 125,463 Q128,452 135.5,436.5 Q143,421 147.5,412.5 Q152,404 162,386 Q172,368 176,361 L336,361 L336,328 L194,328 Q216,280 216,236 Q216,142 107,48 Q172,79 217,79 Q256,79 301,64 Q370,41 392,41 Q455,41 510,93 L542,46 Q483,-15 395,-15 Q381,-15 369,-14 Q357,-13 343,-9 Q329,-5 322.5,-3 Q316,-1 297.5,5.5 Q279,12 272,14 Q227,29 191,29 Q159,29 136,19.5 Q113,10 79,-13 L43,39 Q155,124 155,224 Q155,272 128,328 L46,328 L46,361 L108,361 Q88,397 79.5,413.5 Q71,430 62,460 Q53,490 53,519 Q53,604 116.5,657.5 Q180,711 281,711 Q394,711 454,649 Q514,587 514,475"/> 
            <glyph glyph-name="¤" unicode="&#xA4;" horiz-adv-x="506" d=" M51,162 L114,225 Q68,286 68,356 Q68,427 113,486 L50,550 L84,584 L147,520 Q204,565 278,565 Q348,565 409,521 L472,583 L506,549 L443,486 Q488,422 488,355 Q488,286 442,226 L506,161 L472,127 L408,192 Q352,145 278,145 Q208,145 148,191 L85,128 M343,513 Q213,513 166.5,467 Q120,421 120,355 Q120,290 166.5,243.5 Q213,197 278,197 Q343,197 389.5,243.5 Q436,290 436,355 Q436,421 343,513"/> 
            <glyph glyph-name="¦" unicode="&#xA6;" horiz-adv-x="138" d=" M84,-89 L84,161 L138,161 L138,-89 M84,411 L84,661 L138,661 L138,411"/> 
            <glyph glyph-name="§" unicode="&#xA7;" horiz-adv-x="510" d=" M455,539 L394,539 Q387,664 272,664 Q224,664 194,638.5 Q164,613 164,573 Q164,556 170,541.5 Q176,527 182.5,517 Q189,507 208,493.5 Q227,480 239,472.5 Q251,465 283,447.5 Q315,430 332,420 Q420,369 448,344 Q510,291 510,224 Q510,176 481.5,138.5 Q453,101 401,80 Q459,30 459,-34 Q459,-100 409,-142 Q359,-184 280,-184 Q191,-184 141.5,-134.5 Q92,-85 90,0 L152,0 Q155,-65 188,-98.5 Q221,-132 282,-132 Q332,-132 364,-105.5 Q396,-79 396,-37 Q396,-19 388,-3 Q380,13 371,24.5 Q362,36 338.5,52.5 Q315,69 300.5,78.5 Q286,88 251,108 Q247,110 245,111.5 Q243,113 240,114.5 Q237,116 234,118 Q226,123 198.5,138 Q171,153 159.5,160 Q148,167 125.5,182.5 Q103,198 92,210.5 Q81,223 67.5,241 Q54,259 48.5,279 Q43,299 43,322 Q43,374 72.5,411 Q102,448 152,466 Q102,512 102,570 Q102,634 150,675 Q198,716 273,716 Q359,716 406.5,670 Q454,624 455,539 M188,435 Q103,396 103,328 Q103,295 126,268 Q149,241 204,208 Q219,199 254,179 Q289,159 314.5,143 Q340,127 362,111 Q404,126 427,153 Q450,180 450,215 Q450,276 344,341 Q311,361 277,380 Q243,399 224,410 Q205,421 188,435"/> 
            <glyph glyph-name="©" unicode="&#xA9;" horiz-adv-x="767" d=" M248,720 Q552,720 659.5,612.5 Q767,505 767,353 Q767,202 659.5,94.5 Q552,-13 400,-13 Q248,-13 140.5,94 Q33,201 33,353 Q33,505 248,720 M537,685 Q263,685 165.5,588 Q68,491 68,354 Q68,216 165.5,119 Q263,22 400,22 Q537,22 634.5,119 Q732,216 732,353 Q732,490 537,685 M577,278 Q569,219 522,180.5 Q475,142 411,142 Q326,142 269,203 Q212,264 212,356 Q212,448 266.5,509 Q321,570 403,570 Q472,570 520.5,529 Q569,488 574,426 L530,426 Q521,473 488,501 Q455,529 406,529 Q344,529 304.5,481.5 Q265,434 265,359 Q265,282 306,232.5 Q347,183 412,183 Q458,183 490,208.5 Q522,234 533,278"/> 
            <glyph glyph-name="«" unicode="&#xAB;" horiz-adv-x="354" d=" M354,423 L354,357 L260,266 L354,176 L354,110 L220,234 L220,296 M193,422 L193,357 L99,266 L193,177 L193,110 L59,235 L59,297"/> 
            <glyph glyph-name="¬" unicode="&#xAC;" horiz-adv-x="548" d=" M51,320 L51,368 L548,368 L548,137 L498,137 L498,320"/> 
            <glyph glyph-name="®" unicode="&#xAE;" horiz-adv-x="382" d=" M199,723 Q275,723 328.5,669.5 Q382,616 382,540 Q382,464 328.5,410 Q275,356 199,356 Q124,356 70.5,410 Q17,464 17,540 Q17,616 70.5,669.5 Q124,723 199,723 M263,696 Q135,696 89.5,650 Q44,604 44,539 Q44,475 89.5,429 Q135,383 199,383 Q263,383 309,429 Q355,475 355,539 Q355,604 263,696 M129,633 L198,633 Q282,633 282,579 Q282,547 248,535 Q279,520 279,477 Q279,461 285,449 L252,449 Q249,459 248.5,469.5 Q248,480 247,484 Q243,511 232,516.5 Q221,522 188,522 L160,522 L160,449 L129,449 M160,548 L196,548 Q251,548 251,579 Q251,590 246,596 Q241,602 229.5,604 Q218,606 213.5,606.5 Q209,607 195,607 L160,607"/> 
            <glyph glyph-name="°" unicode="&#xB0;" horiz-adv-x="348" d=" M138,712 Q262,712 305,669 Q348,626 348,564 Q348,502 305,459 Q262,416 200,416 Q138,416 95,459 Q52,502 52,564 Q52,626 138,712 M241,664 Q159,664 129.5,634.5 Q100,605 100,564 Q100,522 129.5,493 Q159,464 200,464 Q241,464 270.5,493 Q300,522 300,564 Q300,605 241,664"/> 
            <glyph glyph-name="±" unicode="&#xB1;" horiz-adv-x="548" d=" M273,86 L273,264 L51,264 L51,312 L273,312 L273,489 L326,489 L326,312 L548,312 L548,264 L326,264 L326,86 M51,-8 L51,40 L548,40 L548,-8"/> 
            <glyph glyph-name="µ" unicode="&#xB5;" horiz-adv-x="475" d=" M475,514 L475,0 L417,0 L417,95 Q358,-15 236,-15 Q179,-15 123,20 L123,-207 L59,-207 L59,514 L122,514 L122,209 Q122,169 126.5,142.5 Q131,116 143.5,90.5 Q156,65 183,52.5 Q210,40 252,40 Q312,40 349.5,72 Q387,104 400,148.5 Q413,193 413,250 L413,514"/> 
            <glyph glyph-name="¶" unicode="&#xB6;" horiz-adv-x="543" d=" M543,668 L490,668 L490,-173 L436,-173 L436,668 L310,668 L310,-173 L256,-173 L256,263 Q159,268 104,326 Q49,384 49,482 Q49,595 119.5,653.5 Q190,712 305,712 L543,712"/> 
            <glyph glyph-name="·" unicode="&#xB7;" horiz-adv-x="181" d=" M181,347 L181,244 L99,244 L99,347"/> 
            <glyph glyph-name="»" unicode="&#xBB;" horiz-adv-x="367" d=" M233,423 L367,296 L367,236 L233,111 L233,176 L327,266 L233,355 M72,422 L205,298 L205,237 L72,111 L72,176 L166,267 L72,357"/> 
            <glyph glyph-name="÷" unicode="&#xF7;" horiz-adv-x="548" d=" M51,216 L51,265 L548,265 L548,216 M264,13 L264,113 L334,113 L334,13 M264,368 L264,468 L334,468 L334,368"/> 
            <glyph glyph-name="ƒ" unicode="&#x192;" horiz-adv-x="490" d=" M421,437 L412,388 L299,388 L230,21 Q218,-42 205.5,-75 Q193,-108 172,-132 Q135,-175 62,-175 Q40,-175 7,-171 L17,-117 Q38,-120 57,-120 Q108,-120 130,-88 Q151,-59 168,30 L236,388 L135,388 L145,437 L246,437 L265,539 Q280,618 308,654 Q347,705 428,705 Q461,705 490,701 L479,648 Q455,651 431,651 Q387,651 363.5,625.5 Q340,600 328,538 L308,437"/> 
            <glyph glyph-name="Ё" unicode="&#x401;" horiz-adv-x="570" d=" M453,882 L453,780 L388,780 L388,882 M272,882 L272,780 L206,780 L206,882 M566,712 L566,654 L140,654 L140,397 L539,397 L539,340 L140,340 L140,58 L570,58 L570,0 L72,0 L72,712"/> 
            <glyph glyph-name="Ђ" unicode="&#x402;" horiz-adv-x="705" d=" M705,171 Q705,43 634.5,-40.5 Q564,-124 443,-124 L443,-65 Q636,-52 636,172 Q636,264 591.5,320.5 Q547,377 469,377 Q383,377 337.5,323 Q292,269 292,167 L292,0 L224,0 L224,653 L-5,653 L-5,712 L561,712 L561,653 L292,653 L292,331 L295,331 Q319,381 367.5,407.5 Q416,434 475,434 Q578,434 641.5,360.5 Q705,287 705,171"/> 
            <glyph glyph-name="Ѓ" unicode="&#x403;" horiz-adv-x="512" d=" M138,0 L71,0 L71,712 L512,712 L512,653 L138,653 M376,902 L250,761 L200,761 L299,902"/> 
            <glyph glyph-name="Є" unicode="&#x404;" horiz-adv-x="668" d=" M668,248 Q651,126 569,55 Q487,-16 365,-16 Q217,-16 128,85 Q39,186 39,355 Q39,513 127.5,621 Q216,729 371,729 Q479,729 564.5,665.5 Q650,602 662,498 L594,498 Q578,577 517,623.5 Q456,670 369,670 Q260,670 189.5,595.5 Q119,521 108,397 L494,397 L494,340 L106,340 Q111,204 181.5,123 Q252,42 367,42 Q464,42 524,98 Q584,154 601,248"/> 
            <glyph glyph-name="Ѕ" unicode="&#x405;" horiz-adv-x="591" d=" M569,507 L503,507 Q499,586 446.5,627.5 Q394,669 305,669 Q221,669 174,634 Q127,599 127,535 Q127,512 132.5,494.5 Q138,477 152.5,464 Q167,451 179.5,442.5 Q192,434 220,425.5 Q248,417 265,412.5 Q282,408 319,400 Q359,391 384,385 Q409,379 441,369 Q473,359 492.5,349 Q512,339 533,324 Q554,309 565,291 Q576,273 583.5,248.5 Q591,224 591,194 Q591,121 550.5,72 Q510,23 452,4 Q394,-15 323,-15 Q190,-15 114.5,50 Q39,115 39,229 L39,235 L104,235 Q104,138 163.5,89 Q223,40 328,40 Q420,40 473,79 Q526,118 526,187 Q526,254 475.5,282.5 Q425,311 285,344 Q240,354 218.5,360 Q197,366 161,381 Q125,396 107.5,413.5 Q90,431 76,461 Q62,491 62,531 Q62,621 128.5,673.5 Q195,726 310,726 Q426,726 495,670.5 Q564,615 569,507"/> 
            <glyph glyph-name="І" unicode="&#x406;" horiz-adv-x="145" d=" M145,712 L145,0 L77,0 L77,712"/> 
            <glyph glyph-name="Ї" unicode="&#x407;" horiz-adv-x="234" d=" M145,712 L145,0 L77,0 L77,712 M234,882 L234,780 L169,780 L169,882 M53,882 L53,780 L-12,780 L-12,882"/> 
            <glyph glyph-name="Ј" unicode="&#x408;" horiz-adv-x="430" d=" M430,712 L430,193 Q430,-16 229,-16 Q121,-16 72.5,39 Q24,94 24,202 Q24,216 25,230 L90,230 L90,209 Q90,124 118.5,82 Q147,40 229,40 Q309,40 336,84 Q363,128 363,211 L363,712"/> 
            <glyph glyph-name="Љ" unicode="&#x409;" horiz-adv-x="971" d=" M971,301 Q971,111 914,55.5 Q857,0 759,0 L498,0 L498,654 L242,654 L229,235 Q222,-15 79,-15 Q42,-15 10,-1 L10,55 Q29,43 77,43 Q118,43 139,94 Q160,145 164,275 L178,712 L566,712 L566,412 L759,412 Q857,412 971,301 M903,137 Q903,275 861,314.5 Q819,354 744,354 L566,354 L566,58 L744,58 Q819,58 903,137"/> 
            <glyph glyph-name="Њ" unicode="&#x40A;" horiz-adv-x="972" d=" M489,354 L140,354 L140,0 L72,0 L72,712 L140,712 L140,412 L489,412 L489,712 L557,712 L557,412 L760,412 Q858,412 915,356.5 Q972,301 972,206 Q972,111 915,55.5 Q858,0 760,0 L489,0 M904,137 Q904,275 862,314.5 Q820,354 745,354 L557,354 L557,58 L745,58 Q820,58 904,137"/> 
            <glyph glyph-name="Ћ" unicode="&#x40B;" horiz-adv-x="680" d=" M450,434 Q509,434 552,421.5 Q595,409 619,390 Q643,371 657.5,342 Q672,313 676,287.5 Q680,262 680,229 L680,0 L612,0 L612,225 Q612,246 610,263 Q608,280 598.5,302.5 Q589,325 573.5,339.5 Q558,354 528,364.5 Q498,375 457,375 Q418,375 370.5,361 Q323,347 292,329 L292,0 L224,0 L224,654 L-5,654 L-5,712 L561,712 L561,654 L292,654 L292,391 Q322,407 371,420.5 Q420,434 450,434"/> 
            <glyph glyph-name="Ќ" unicode="&#x40C;" horiz-adv-x="659" d=" M643,712 L322,421 L659,0 L572,0 L274,375 L138,251 L138,0 L71,0 L71,712 L138,712 L138,329 Q180,370 185,374 L553,712 M436,902 L310,761 L260,761 L359,902"/> 
            <glyph glyph-name="Ў" unicode="&#x40E;" horiz-adv-x="602" d=" M-7,712 L66,712 L299,237 L530,712 L602,712 L318,124 Q277,39 238,12 Q199,-15 140,-15 Q106,-15 66,3 L66,61 Q95,43 146,43 Q205,43 252,141 L261,160 M162,886 L201,886 Q206,848 233,826 Q260,804 304,804 Q347,804 375,825.5 Q403,847 410,886 L449,886 Q426,756 303,756 Q241,756 205.5,789.5 Q170,823 162,886"/> 
            <glyph glyph-name="Џ" unicode="&#x40F;" horiz-adv-x="632" d=" M386,0 L386,-192 L318,-192 L318,0 L72,0 L72,712 L140,712 L140,58 L564,58 L564,712 L632,712 L632,0"/> 
            <glyph glyph-name="А" unicode="&#x410;" horiz-adv-x="638" d=" M354,714 L638,0 L563,0 L477,224 L151,224 L64,0 L-9,0 L279,714 M456,279 L316,650 L172,279"/> 
            <glyph glyph-name="Б" unicode="&#x411;" horiz-adv-x="621" d=" M621,301 Q621,111 564,55.5 Q507,0 409,0 L72,0 L72,712 L565,712 L565,654 L140,654 L140,412 L409,412 Q507,412 621,301 M553,137 Q553,275 511,314.5 Q469,354 394,354 L140,354 L140,58 L394,58 Q469,58 553,137"/> 
            <glyph glyph-name="В" unicode="&#x412;" horiz-adv-x="628" d=" M72,712 L377,712 Q473,712 536.5,668 Q600,624 600,534 Q600,477 564.5,433 Q529,389 477,377 Q543,364 585.5,322 Q628,280 628,204 Q628,105 559.5,52.5 Q491,0 387,0 L72,0 M138,654 L138,397 L364,397 Q435,397 484,427 Q533,457 533,525 Q533,565 517.5,592 Q502,619 473,632 Q444,645 414.5,649.5 Q385,654 346,654 M138,342 L138,58 L351,58 Q394,58 426.5,63 Q459,68 491.5,82.5 Q524,97 542,127.5 Q560,158 560,203 Q560,246 541.5,275.5 Q523,305 489,318.5 Q455,332 422,337 Q389,342 347,342"/> 
            <glyph glyph-name="Г" unicode="&#x413;" horiz-adv-x="512" d=" M138,0 L71,0 L71,712 L512,712 L512,654 L138,654"/> 
            <glyph glyph-name="Д" unicode="&#x414;" horiz-adv-x="694" d=" M694,-192 L626,-192 L626,0 L74,0 L74,-192 L6,-192 L6,58 L71,58 Q98,108 117.5,160.5 Q137,213 148,275 Q159,337 165.5,376 Q172,415 174.5,487 Q177,559 177,578.5 Q177,598 177,671 L177,712 L619,712 L619,58 L694,58 M551,58 L551,654 L245,654 L245,641 Q245,555 243,505 Q241,455 233,367.5 Q225,280 202,203.5 Q179,127 143,58"/> 
            <glyph glyph-name="Е" unicode="&#x415;" horiz-adv-x="570" d=" M566,712 L566,654 L140,654 L140,397 L539,397 L539,340 L140,340 L140,58 L570,58 L570,0 L72,0 L72,712"/> 
            <glyph glyph-name="Ж" unicode="&#x416;" horiz-adv-x="998" d=" M361,356 L80,0 L-8,0 L313,406 L17,712 L109,712 L461,338 L461,712 L529,712 L529,338 L881,712 L973,712 L677,406 L998,0 L910,0 L629,356 L529,252 L529,0 L461,0 L461,252"/> 
            <glyph glyph-name="З" unicode="&#x417;" horiz-adv-x="590" d=" M590,209 Q590,181 582,152 Q574,123 554,92.5 Q534,62 504.5,38.5 Q475,15 428,0 Q381,-15 324,-15 Q191,-15 115.5,50 Q40,115 40,229 L40,235 L105,235 Q105,138 164.5,89 Q224,40 329,40 Q416,40 469,88.5 Q522,137 522,208 Q522,269 475.5,307.5 Q429,346 360,346 L246,346 L246,404 L360,404 Q421,404 462,437 Q503,470 503,529 Q503,600 455,636 Q407,672 330,672 Q242,672 187.5,630.5 Q133,589 129,510 L63,510 Q68,617 140,673 Q212,729 328,729 Q435,729 503,680 Q571,631 571,535 Q571,482 539.5,440.5 Q508,399 466,384 L466,381 Q524,366 557,322 Q590,278 590,209"/> 
            <glyph glyph-name="И" unicode="&#x418;" horiz-adv-x="632" d=" M72,0 L72,712 L140,712 L140,73 L544,712 L632,712 L632,0 L564,0 L564,639 L160,0"/> 
            <glyph glyph-name="Й" unicode="&#x419;" horiz-adv-x="632" d=" M209,886 L248,886 Q253,848 280,826 Q307,804 351,804 Q394,804 422,825.5 Q450,847 457,886 L496,886 Q473,756 350,756 Q288,756 252.5,789.5 Q217,823 209,886 M72,0 L72,712 L140,712 L140,73 L544,712 L632,712 L632,0 L564,0 L564,639 L160,0"/> 
            <glyph glyph-name="К" unicode="&#x41A;" horiz-adv-x="659" d=" M643,712 L322,421 L659,0 L572,0 L274,375 L138,251 L138,0 L71,0 L71,712 L138,712 L138,329 L553,712"/> 
            <glyph glyph-name="Л" unicode="&#x41B;" horiz-adv-x="598" d=" M598,0 L530,0 L530,654 L243,654 L230,235 Q223,-15 80,-15 Q40,-15 8,-1 L8,55 Q27,43 78,43 Q119,43 140,94 Q161,145 165,275 L179,712 L598,712"/> 
            <glyph glyph-name="М" unicode="&#x41C;" horiz-adv-x="763" d=" M763,712 L763,0 L698,0 L698,430 Q698,534 706,654 Q685,588 659,525 L449,0 L388,0 L175,519 Q153,572 128,650 Q136,533 136,432 L136,0 L71,0 L71,712 L163,712 L370,204 Q380,179 419,70 Q424,83 440,130 Q456,177 466,202 L670,712"/> 
            <glyph glyph-name="Н" unicode="&#x41D;" horiz-adv-x="632" d=" M632,712 L632,0 L564,0 L564,344 L139,344 L139,0 L71,0 L71,712 L139,712 L139,402 L564,402 L564,712"/> 
            <glyph glyph-name="О" unicode="&#x41E;" horiz-adv-x="706" d=" M370,729 Q519,729 612.5,625 Q706,521 706,354 Q706,188 613,85.5 Q520,-17 369,-17 Q219,-17 127,86 Q35,189 35,356 Q35,523 127.5,626 Q220,729 370,729 M369,670 Q250,670 176.5,584 Q103,498 103,358 Q103,215 176,128.5 Q249,42 370,42 Q491,42 564.5,128 Q638,214 638,355 Q638,496 564,583 Q490,670 369,670"/> 
            <glyph glyph-name="П" unicode="&#x41F;" horiz-adv-x="632" d=" M632,712 L632,0 L564,0 L564,654 L139,654 L139,0 L71,0 L71,712"/> 
            <glyph glyph-name="Р" unicode="&#x420;" horiz-adv-x="604" d=" M75,712 L380,712 Q483,712 543.5,660.5 Q604,609 604,512 Q604,410 543,357 Q482,304 378,304 L143,304 L143,0 L75,0 M143,654 L143,361 L359,361 Q438,361 487,396.5 Q536,432 536,507 Q536,581 491,617.5 Q446,654 366,654"/> 
            <glyph glyph-name="С" unicode="&#x421;" horiz-adv-x="671" d=" M671,273 Q660,141 576.5,62.5 Q493,-16 365,-16 Q217,-16 128,85 Q39,186 39,355 Q39,513 127.5,621 Q216,729 371,729 Q479,729 564.5,665.5 Q650,602 662,498 L594,498 Q578,577 517,623.5 Q456,670 369,670 Q251,670 178.5,583.5 Q106,497 106,355 Q106,213 177.5,127.5 Q249,42 367,42 Q470,42 531,105.5 Q592,169 604,273"/> 
            <glyph glyph-name="Т" unicode="&#x422;" horiz-adv-x="562" d=" M562,712 L562,654 L312,654 L312,0 L244,0 L244,654 L-6,654 L-6,712"/> 
            <glyph glyph-name="У" unicode="&#x423;" horiz-adv-x="602" d=" M-7,712 L66,712 L299,237 L530,712 L602,712 L318,124 Q277,39 238,12 Q199,-15 140,-15 Q106,-15 66,3 L66,61 Q95,43 146,43 Q205,43 252,141 L261,160"/> 
            <glyph glyph-name="Ф" unicode="&#x424;" horiz-adv-x="720" d=" M720,362 Q720,230 629.5,158 Q539,86 409,86 L409,0 L341,0 L341,86 Q211,86 120.5,158 Q30,230 30,362 Q30,490 120,562 Q210,634 341,634 L341,712 L409,712 L409,634 Q540,634 630,562 Q720,490 720,362 M653,362 Q653,467 587,518.5 Q521,570 409,576 L409,143 Q519,151 586,204.5 Q653,258 653,362 M341,143 L341,576 Q229,570 163,518.5 Q97,467 97,362 Q97,258 164,204.5 Q231,151 341,143"/> 
            <glyph glyph-name="Х" unicode="&#x425;" horiz-adv-x="583" d=" M569,712 L326,366 L583,0 L501,0 L323,255 Q302,285 296,296.5 Q290,308 285,316 Q280,311 272.5,300 Q265,289 256,275 Q247,261 244,256 L64,0 L-14,0 L245,366 L2,712 L82,712 L241,484 Q250,471 264.5,446.5 Q279,422 285,413 Q310,449 331,485 L494,712"/> 
            <glyph glyph-name="Ц" unicode="&#x426;" horiz-adv-x="707" d=" M707,-192 L639,-192 L639,0 L72,0 L72,712 L140,712 L140,58 L564,58 L564,712 L632,712 L632,58 L707,58"/> 
            <glyph glyph-name="Ч" unicode="&#x427;" horiz-adv-x="568" d=" M500,340 Q464,331 394,320.5 Q324,310 281,310 Q222,310 179,322.5 Q136,335 112,354 Q88,373 73.5,402 Q59,431 55,456.5 Q51,482 51,515 L51,712 L119,712 L119,519 Q119,498 121,481 Q123,464 132.5,441.5 Q142,419 157.5,404.5 Q173,390 203,379.5 Q233,369 274,369 Q384,369 500,398 L500,712 L568,712 L568,0 L500,0"/> 
            <glyph glyph-name="Ш" unicode="&#x428;" horiz-adv-x="972" d=" M72,0 L72,712 L140,712 L140,58 L488,58 L488,712 L556,712 L556,58 L904,58 L904,712 L972,712 L972,0"/> 
            <glyph glyph-name="Щ" unicode="&#x429;" horiz-adv-x="1047" d=" M72,0 L72,712 L140,712 L140,58 L488,58 L488,712 L556,712 L556,58 L904,58 L904,712 L972,712 L972,58 L1047,58 L1047,-192 L979,-192 L979,0"/> 
            <glyph glyph-name="Ъ" unicode="&#x42A;" horiz-adv-x="756" d=" M756,301 Q756,111 699,55.5 Q642,0 544,0 L227,0 L227,654 L-5,654 L-5,712 L295,712 L295,412 L544,412 Q642,412 756,301 M688,137 Q688,275 646,314.5 Q604,354 529,354 L295,354 L295,58 L529,58 Q604,58 688,137"/> 
            <glyph glyph-name="Ы" unicode="&#x42B;" horiz-adv-x="769" d=" M601,301 Q601,111 544,55.5 Q487,0 389,0 L72,0 L72,712 L140,712 L140,412 L389,412 Q487,412 601,301 M533,137 Q533,275 491,314.5 Q449,354 374,354 L140,354 L140,58 L374,58 Q449,58 533,137 M701,712 L769,712 L769,0 L701,0"/> 
            <glyph glyph-name="Ь" unicode="&#x42C;" horiz-adv-x="601" d=" M601,301 Q601,111 544,55.5 Q487,0 389,0 L72,0 L72,712 L140,712 L140,412 L389,412 Q487,412 601,301 M533,137 Q533,275 491,314.5 Q449,354 374,354 L140,354 L140,58 L374,58 Q449,58 533,137"/> 
            <glyph glyph-name="Э" unicode="&#x42D;" horiz-adv-x="665" d=" M665,355 Q665,186 576,85 Q487,-16 339,-16 Q217,-16 135,55 Q53,126 36,248 L103,248 Q120,154 180,98 Q240,42 337,42 Q452,42 522.5,123 Q593,204 598,340 L220,340 L220,397 L596,397 Q585,521 514.5,595.5 Q444,670 335,670 Q248,670 187,623.5 Q126,577 110,498 L42,498 Q54,602 139.5,665.5 Q225,729 333,729 Q488,729 576.5,621 Q665,513 665,355"/> 
            <glyph glyph-name="Ю" unicode="&#x42E;" horiz-adv-x="965" d=" M629,729 Q778,729 871.5,625 Q965,521 965,354 Q965,188 872,85.5 Q779,-17 628,-17 Q481,-17 389.5,82.5 Q298,182 294,344 L138,344 L138,0 L70,0 L70,712 L138,712 L138,402 L296,402 Q309,550 399.5,639.5 Q490,729 629,729 M628,670 Q509,670 435.5,584 Q362,498 362,358 Q362,215 435,128.5 Q508,42 629,42 Q750,42 823.5,128 Q897,214 897,355 Q897,496 823,583 Q749,670 628,670"/> 
            <glyph glyph-name="Я" unicode="&#x42F;" horiz-adv-x="558" d=" M337,316 L92,0 L4,0 L249,316 Q154,319 98.5,371.5 Q43,424 43,515 Q43,608 101,660 Q159,712 259,712 L558,712 L558,0 L490,0 L490,316 M490,374 L490,654 L274,654 Q198,654 154.5,618.5 Q111,583 111,515 Q111,447 154.5,410.5 Q198,374 274,374"/> 
            <glyph glyph-name="а" unicode="&#x430;" horiz-adv-x="511" d=" M511,51 L511,3 Q488,-5 461,-5 Q420,-5 407,20 Q394,45 394,89 Q329,-14 200,-14 Q121,-14 76.5,24 Q32,62 32,130 Q32,269 223,289 Q233,290 251,291.5 Q269,293 277.5,294 Q286,295 299.5,296.5 Q313,298 319.5,299 Q326,300 335.5,302 Q345,304 350.5,306 Q356,308 362,310.5 Q368,313 373,316 Q391,328 391,365 Q391,426 357,451 Q323,476 257,476 Q192,476 157.5,446.5 Q123,417 117,355 L57,355 Q61,438 115,483 Q169,528 264,528 Q352,528 402.5,490 Q453,452 453,380 L453,100 Q453,80 454,71.5 Q455,63 462.5,55.5 Q470,48 487,48 Q500,48 511,51 M391,280 Q382,270 361.5,263.5 Q341,257 324,254 Q307,251 266,246 Q256,245 251,244 Q219,240 198.5,235 Q178,230 151.5,218.5 Q125,207 111.5,186.5 Q98,166 98,136 Q98,91 130,64.5 Q162,38 216,38 Q289,38 340,81.5 Q391,125 391,196"/> 
            <glyph glyph-name="б" unicode="&#x431;" horiz-adv-x="521" d=" M521,374 Q521,132 455,58.5 Q389,-15 282,-15 Q214,-15 165.5,10.5 Q117,36 91,81.5 Q65,127 54,179.5 Q43,232 43,296 Q43,495 107,594 Q141,646 190,670 Q239,694 314,699 L362,702 Q400,704 415,710 Q430,716 436,729 L506,729 Q498,685 467.5,668 Q437,651 367,646 L291,641 Q204,635 157.5,577.5 Q111,520 94,401 L97,401 Q123,453 174.5,485 Q226,517 288,517 Q393,517 521,374 M458,253 Q458,346 409,405 Q360,464 285,464 Q205,464 155.5,406.5 Q106,349 106,253 Q106,158 155.5,98 Q205,38 282,38 Q359,38 408.5,98 Q458,158 458,253"/> 
            <glyph glyph-name="в" unicode="&#x432;" horiz-adv-x="485" d=" M485,144 Q485,74 437,37 Q389,0 300,0 L59,0 L59,514 L300,514 Q379,514 422,482.5 Q465,451 465,392 Q465,299 376,274 L376,272 Q485,253 485,144 M402,376 Q402,461 293,461 L122,461 L122,293 L293,293 Q346,293 374,315 Q402,337 402,376 M422,151 Q422,244 293,244 L122,244 L122,53 L293,53 Q422,53 422,151"/> 
            <glyph glyph-name="г" unicode="&#x433;" horiz-adv-x="406" d=" M406,461 L128,461 L128,0 L65,0 L65,514 L406,514"/> 
            <glyph glyph-name="д" unicode="&#x434;" horiz-adv-x="546" d=" M546,-164 L483,-164 L483,0 L69,0 L69,-164 L6,-164 L6,53 L67,53 Q138,184 138,448 L138,514 L474,514 L474,53 L546,53 M411,53 L411,461 L199,461 L199,427 Q199,185 132,53"/> 
            <glyph glyph-name="е" unicode="&#x435;" horiz-adv-x="493" d=" M488,169 Q471,82 414,32.5 Q357,-17 268,-17 Q161,-17 96.5,56 Q32,129 32,251 Q32,373 97.5,450.5 Q163,528 267,528 Q376,528 434.5,451 Q493,374 493,260 L493,242 L96,242 Q96,153 139.5,93.5 Q183,34 270,34 Q397,34 427,169 M430,293 Q425,379 381,427.5 Q337,476 265,476 Q187,476 146.5,425 Q106,374 96,293"/> 
            <glyph glyph-name="ж" unicode="&#x436;" horiz-adv-x="746" d=" M262,258 L72,0 L-5,0 L218,300 L17,514 L102,514 L339,252 L339,514 L402,514 L402,253 L639,514 L724,514 L523,300 L746,0 L669,0 L479,258 L402,178 L402,0 L339,0 L339,178"/> 
            <glyph glyph-name="з" unicode="&#x437;" horiz-adv-x="448" d=" M38,365 Q51,529 240,529 Q326,529 378.5,495.5 Q431,462 431,390 Q431,347 406,315 Q381,283 348,276 L348,274 Q390,266 419,237 Q448,208 448,153 Q448,73 388,29 Q328,-15 241,-15 Q142,-15 87.5,32 Q33,79 28,161 L91,161 Q108,38 242,38 Q320,38 351,70.5 Q382,103 382,151 Q382,193 355,218.5 Q328,244 272,244 L186,244 L186,292 L257,292 Q304,292 335,317 Q366,342 366,386 Q366,476 239,476 Q110,476 100,365"/> 
            <glyph glyph-name="и" unicode="&#x438;" horiz-adv-x="478" d=" M478,0 L415,0 L415,440 L137,0 L59,0 L59,514 L122,514 L122,74 L400,514 L478,514"/> 
            <glyph glyph-name="й" unicode="&#x439;" horiz-adv-x="478" d=" M126,714 L165,714 Q170,676 197,654 Q224,632 268,632 Q311,632 339,653.5 Q367,675 374,714 L413,714 Q390,584 267,584 Q205,584 169.5,617.5 Q134,651 126,714 M478,0 L415,0 L415,440 L137,0 L59,0 L59,514 L122,514 L122,74 L400,514 L478,514"/> 
            <glyph glyph-name="к" unicode="&#x43A;" horiz-adv-x="506" d=" M274,314 L506,0 L427,0 L228,271 L123,174 L123,0 L60,0 L60,514 L123,514 L123,251 L409,514 L493,514"/> 
            <glyph glyph-name="л" unicode="&#x43B;" horiz-adv-x="480" d=" M480,0 L417,0 L417,461 L207,461 L198,203 Q194,91 161,40 Q128,-11 64,-11 Q36,-11 9,0 L9,51 Q27,42 65,42 Q130,42 136,206 L146,514 L480,514"/> 
            <glyph glyph-name="м" unicode="&#x43C;" horiz-adv-x="609" d=" M609,0 L546,0 L546,423 L543,423 L362,0 L306,0 L125,423 L122,423 L122,0 L59,0 L59,514 L143,514 L335,71 L525,514 L609,514"/> 
            <glyph glyph-name="н" unicode="&#x43D;" horiz-adv-x="478" d=" M478,0 L415,0 L415,242 L122,242 L122,0 L59,0 L59,514 L122,514 L122,295 L415,295 L415,514 L478,514"/> 
            <glyph glyph-name="о" unicode="&#x43E;" horiz-adv-x="521" d=" M279,529 Q390,529 455.5,455 Q521,381 521,255 Q521,130 456,57.5 Q391,-15 279,-15 Q167,-15 100.5,58.5 Q34,132 34,257 Q34,381 100.5,455 Q167,529 279,529 M360,476 Q196,476 147,416.5 Q98,357 98,257 Q98,155 146.5,96 Q195,37 280,37 Q362,37 410,96 Q458,155 458,256 Q458,357 360,476"/> 
            <glyph glyph-name="п" unicode="&#x43F;" horiz-adv-x="478" d=" M478,0 L415,0 L415,461 L122,461 L122,0 L59,0 L59,514 L478,514"/> 
            <glyph glyph-name="р" unicode="&#x440;" horiz-adv-x="536" d=" M120,514 L120,415 Q176,529 304,529 Q409,529 472.5,454 Q536,379 536,255 Q536,133 473,58.5 Q410,-16 306,-16 Q176,-16 124,95 L124,-192 L63,-192 L63,514 M377,477 Q215,477 168.5,418 Q122,359 122,256 Q122,155 169.5,96 Q217,37 298,37 Q377,37 424.5,96.5 Q472,156 472,255 Q472,356 377,477"/> 
            <glyph glyph-name="с" unicode="&#x441;" horiz-adv-x="491" d=" M491,184 Q478,94 421.5,39.5 Q365,-15 274,-15 Q166,-15 101,58 Q36,131 36,252 Q36,378 101.5,453.5 Q167,529 276,529 Q365,529 420.5,482 Q476,435 487,352 L423,352 Q398,477 277,477 Q196,477 148.5,417.5 Q101,358 101,257 Q101,156 147,96.5 Q193,37 271,37 Q336,37 377,75.5 Q418,114 428,184"/> 
            <glyph glyph-name="т" unicode="&#x442;" horiz-adv-x="445" d=" M445,461 L254,461 L254,0 L191,0 L191,461 L0,461 L0,514 L445,514"/> 
            <glyph glyph-name="у" unicode="&#x443;" horiz-adv-x="460" d=" M460,514 L258,-19 Q220,-121 192,-158 Q164,-195 106,-195 Q81,-195 51,-190 L51,-135 Q79,-142 96,-142 Q134,-142 153.5,-114 Q173,-86 198,-17 Q199,-13 200,-11.5 Q201,-10 202,-7 Q203,-4 204,-1.5 Q205,1 206,4 L-1,514 L68,514 L207,160 Q215,139 238,69 Q264,154 269,167 L396,514"/> 
            <glyph glyph-name="ф" unicode="&#x444;" horiz-adv-x="763" d=" M763,256 Q763,131 705.5,58 Q648,-15 563,-15 Q522,-15 487,4 Q452,23 434,54 L432,54 L432,-192 L369,-191 L369,54 Q369,53 367,54 Q349,23 314,4 Q279,-15 238,-15 Q153,-15 95.5,58 Q38,131 38,256 Q38,389 91,460 Q144,531 239,531 Q326,531 367,461 L369,461 L369,712 L432,712 L432,461 L434,461 Q475,531 562,531 Q657,531 710,460 Q763,389 763,256 M700,256 Q700,368 657,423 Q614,478 546,478 Q498,478 465,447 Q432,416 432,368 L432,150 Q432,100 465,69 Q498,38 547,38 Q618,38 659,92 Q700,146 700,256 M369,150 L369,368 Q369,416 336,447 Q303,478 255,478 Q187,478 144,423 Q101,368 101,256 Q101,146 142,92 Q183,38 254,38 Q303,38 336,69 Q369,100 369,150"/> 
            <glyph glyph-name="х" unicode="&#x445;" horiz-adv-x="481" d=" M460,514 L278,274 L481,0 L401,0 L264,188 Q261,192 256.5,198.5 Q252,205 247.5,212 Q243,219 238,227 Q227,209 212,189 L76,0 L1,0 L200,270 L16,514 L96,514 L207,364 Q213,357 223.5,340.5 Q234,324 239,316 Q268,358 272,364 L386,514"/> 
            <glyph glyph-name="ц" unicode="&#x446;" horiz-adv-x="546" d=" M546,-164 L483,-164 L483,0 L56,0 L56,514 L119,514 L119,53 L412,53 L412,514 L475,514 L475,53 L546,53"/> 
            <glyph glyph-name="ч" unicode="&#x447;" horiz-adv-x="444" d=" M381,245 Q297,214 205,214 Q124,214 83,253.5 Q42,293 42,380 L42,514 L105,514 L105,373 Q105,338 114.5,315.5 Q124,293 143.5,284 Q163,275 178,273 Q193,271 218,271 Q305,271 381,302 L381,514 L444,514 L444,0 L381,0"/> 
            <glyph glyph-name="ш" unicode="&#x448;" horiz-adv-x="730" d=" M59,0 L59,514 L122,514 L122,53 L363,53 L363,514 L426,514 L426,53 L667,53 L667,514 L730,514 L730,0"/> 
            <glyph glyph-name="щ" unicode="&#x449;" horiz-adv-x="798" d=" M56,0 L56,514 L119,514 L119,53 L360,53 L360,514 L423,514 L423,53 L664,53 L664,514 L727,514 L727,53 L798,53 L798,-164 L735,-164 L735,0"/> 
            <glyph glyph-name="ъ" unicode="&#x44A;" horiz-adv-x="590" d=" M169,461 L0,461 L0,514 L232,514 L232,312 L427,312 Q502,312 546,270 Q590,228 590,156 Q590,83 546,41.5 Q502,0 427,0 L169,0 M527,156 Q527,205 496.5,232 Q466,259 412,259 L232,259 L232,53 L412,53 Q467,53 497,79.5 Q527,106 527,156"/> 
            <glyph glyph-name="ы" unicode="&#x44B;" horiz-adv-x="610" d=" M57,514 L120,514 L120,312 L287,312 Q362,312 406,270 Q450,228 450,156 Q450,83 406,41.5 Q362,0 287,0 L57,0 M387,156 Q387,205 356.5,232 Q326,259 272,259 L120,259 L120,53 L272,53 Q327,53 357,79.5 Q387,106 387,156 M547,514 L610,514 L610,0 L547,0"/> 
            <glyph glyph-name="ь" unicode="&#x44C;" horiz-adv-x="480" d=" M59,514 L122,514 L122,312 L317,312 Q392,312 436,270 Q480,228 480,156 Q480,83 436,41.5 Q392,0 317,0 L59,0 M417,156 Q417,205 386.5,232 Q356,259 302,259 L122,259 L122,53 L302,53 Q357,53 387,79.5 Q417,106 417,156"/> 
            <glyph glyph-name="э" unicode="&#x44D;" horiz-adv-x="483" d=" M483,252 Q483,131 418,58 Q353,-15 245,-15 Q159,-15 103.5,34 Q48,83 31,166 L94,166 Q108,104 148,70.5 Q188,37 248,37 Q321,37 366.5,90.5 Q412,144 417,236 L181,236 L181,289 L417,289 Q409,376 362.5,426.5 Q316,477 242,477 Q127,477 99,364 L34,364 Q48,442 102.5,485.5 Q157,529 243,529 Q352,529 417.5,453.5 Q483,378 483,252"/> 
            <glyph glyph-name="ю" unicode="&#x44E;" horiz-adv-x="725" d=" M483,529 Q594,529 659.5,455 Q725,381 725,255 Q725,130 660,57.5 Q595,-15 483,-15 Q374,-15 308.5,54.5 Q243,124 238,242 L122,242 L122,0 L59,0 L59,514 L122,514 L122,295 L240,295 Q251,403 316,466 Q381,529 483,529 M564,476 Q400,476 351,416.5 Q302,357 302,257 Q302,155 350.5,96 Q399,37 484,37 Q566,37 614,96 Q662,155 662,256 Q662,357 564,476"/> 
            <glyph glyph-name="я" unicode="&#x44F;" horiz-adv-x="457" d=" M457,0 L394,0 L394,216 L266,216 L85,0 L3,0 L194,218 Q124,223 82.5,261.5 Q41,300 41,366 Q41,434 83.5,474 Q126,514 197,514 L457,514 M394,461 L212,461 Q161,461 132.5,435.5 Q104,410 104,365 Q104,320 132.5,294.5 Q161,269 212,269 L394,269"/> 
            <glyph glyph-name="ё" unicode="&#x451;" horiz-adv-x="493" d=" M383,712 L383,612 L318,612 L318,712 M202,712 L202,612 L136,612 L136,712 M488,169 Q471,82 414,32.5 Q357,-17 268,-17 Q161,-17 96.5,56 Q32,129 32,251 Q32,373 97.5,450.5 Q163,528 267,528 Q376,528 434.5,451 Q493,374 493,260 L493,242 L96,242 Q96,153 139.5,93.5 Q183,34 270,34 Q397,34 427,169 M430,293 Q425,379 381,427.5 Q337,476 265,476 Q187,476 146.5,425 Q106,374 96,293"/> 
            <glyph glyph-name="ђ" unicode="&#x452;" horiz-adv-x="478" d=" M478,93 Q478,-23 406.5,-105 Q335,-187 218,-191 L218,-132 Q309,-127 362,-61 Q415,5 415,102 L415,177 Q415,333 286,333 Q213,333 167.5,284 Q122,235 122,156 L122,0 L59,0 L59,461 L7,461 L7,514 L59,514 L59,712 L122,712 L122,514 L355,514 L355,461 L122,461 L122,282 L124,282 Q170,386 298,386 Q478,386 478,187"/> 
            <glyph glyph-name="ѓ" unicode="&#x453;" horiz-adv-x="396" d=" M396,461 L122,461 L122,0 L59,0 L59,514 L396,514 M329,734 L203,593 L152,593 L252,734"/> 
            <glyph glyph-name="є" unicode="&#x454;" horiz-adv-x="488" d=" M488,166 Q471,83 415.5,34 Q360,-15 274,-15 Q166,-15 101,58 Q36,131 36,252 Q36,378 101.5,453.5 Q167,529 276,529 Q362,529 416.5,485.5 Q471,442 485,364 L420,364 Q392,477 277,477 Q203,477 156.5,426.5 Q110,376 102,289 L343,289 L343,236 L102,236 Q107,144 152.5,90.5 Q198,37 271,37 Q331,37 371,70.5 Q411,104 425,166"/> 
            <glyph glyph-name="ѕ" unicode="&#x455;" horiz-adv-x="447" d=" M429,364 L368,364 Q359,476 229,476 Q174,476 141.5,453 Q109,430 109,391 Q109,372 116,358 Q123,344 132,335.5 Q141,327 163.5,319 Q186,311 202.5,306.5 Q219,302 256,294 Q289,286 309,281 Q329,276 358.5,263.5 Q388,251 405,236.5 Q422,222 434.5,197.5 Q447,173 447,142 Q447,71 390.5,27.5 Q334,-16 243,-16 Q144,-16 89,32 Q34,80 32,168 L93,168 Q93,104 133,70 Q173,36 245,36 Q308,36 346.5,63.5 Q385,91 385,136 Q385,160 372.5,178 Q360,196 339,206.5 Q318,217 297.5,223.5 Q277,230 254,235 Q247,236 244,237 Q237,239 212,244.5 Q187,250 177,252.5 Q167,255 145,262 Q123,269 113,275 Q103,281 87.5,292 Q72,303 64.5,315.5 Q57,328 51.5,345 Q46,362 46,383 Q46,450 96.5,489 Q147,528 235,528 Q323,528 376,486 Q429,444 429,364"/> 
            <glyph glyph-name="і" unicode="&#x456;" horiz-adv-x="124" d=" M124,715 L124,612 L61,612 L61,715 M124,514 L124,0 L61,0 L61,514"/> 
            <glyph glyph-name="ї" unicode="&#x457;" horiz-adv-x="216" d=" M124,514 L124,0 L61,0 L61,514 M216,714 L216,612 L151,612 L151,714 M35,714 L35,612 L-31,612 L-31,714"/> 
            <glyph glyph-name="ј" unicode="&#x458;" horiz-adv-x="127" d=" M127,514 L127,-34 Q127,-77 123.5,-102 Q120,-127 108.5,-151.5 Q97,-176 71,-186.5 Q45,-197 3,-197 Q-7,-197 -28,-194 L-28,-142 Q-17,-143 -4,-143 Q23,-143 35.5,-138.5 Q48,-134 56.5,-111 Q65,-88 65,-40 L65,514 M127,716 L127,613 L65,613 L65,716"/> 
            <glyph glyph-name="љ" unicode="&#x459;" horiz-adv-x="748" d=" M748,156 Q748,83 704,41.5 Q660,0 585,0 L383,0 L383,461 L207,461 L198,203 Q194,91 161,40 Q128,-11 64,-11 Q36,-11 9,0 L9,51 Q27,42 65,42 Q130,42 136,206 L146,514 L446,514 L446,312 L585,312 Q660,312 704,270 Q748,228 748,156 M685,156 Q685,205 654.5,232 Q624,259 570,259 L446,259 L446,53 L570,53 Q625,53 655,79.5 Q685,106 685,156"/> 
            <glyph glyph-name="њ" unicode="&#x45A;" horiz-adv-x="746" d=" M746,156 Q746,83 702,41.5 Q658,0 583,0 L375,0 L375,259 L122,259 L122,0 L59,0 L59,514 L122,514 L122,312 L375,312 L375,514 L438,514 L438,312 L583,312 Q658,312 702,270 Q746,228 746,156 M683,156 Q683,205 652.5,232 Q622,259 568,259 L438,259 L438,53 L568,53 Q623,53 653,79.5 Q683,106 683,156"/> 
            <glyph glyph-name="ћ" unicode="&#x45B;" horiz-adv-x="478" d=" M7,461 L7,514 L59,514 L59,712 L122,712 L122,514 L355,514 L355,461 L122,461 L122,282 L124,282 Q170,386 298,386 Q478,386 478,187 L478,0 L415,0 L415,177 Q415,333 286,333 Q213,333 167.5,284 Q122,235 122,156 L122,0 L59,0 L59,461"/> 
            <glyph glyph-name="ќ" unicode="&#x45C;" horiz-adv-x="508" d=" M274,314 L508,0 L429,0 L228,271 L123,174 L123,0 L60,0 L60,514 L123,514 L123,251 L409,514 L493,514 M379,734 L253,593 L202,593 L302,734"/> 
            <glyph glyph-name="ў" unicode="&#x45E;" horiz-adv-x="460" d=" M460,514 L258,-19 Q220,-121 192,-158 Q164,-195 106,-195 Q81,-195 51,-190 L51,-135 Q79,-142 96,-142 Q134,-142 153.5,-114 Q173,-86 198,-17 Q199,-13 200,-11.5 Q201,-10 202,-7 Q203,-4 204,-1.5 Q205,1 206,4 L-1,514 L68,514 L207,160 Q215,139 238,69 Q264,154 269,167 L396,514 M96,714 L135,714 Q140,676 167,654 Q194,632 238,632 Q281,632 309,653.5 Q337,675 344,714 L383,714 Q360,584 237,584 Q175,584 139.5,617.5 Q104,651 96,714"/> 
            <glyph glyph-name="џ" unicode="&#x45F;" horiz-adv-x="478" d=" M300,0 L300,-164 L237,-164 L237,0 L59,0 L59,514 L122,514 L122,53 L415,53 L415,514 L478,514 L478,0"/> 
            <glyph glyph-name="Ґ" unicode="&#x490;" horiz-adv-x="512" d=" M512,654 L140,654 L140,0 L72,0 L72,712 L444,712 L444,875 L512,875"/> 
            <glyph glyph-name="ґ" unicode="&#x491;" horiz-adv-x="393" d=" M393,461 L122,461 L122,0 L59,0 L59,514 L330,514 L330,671 L393,671"/> 
            <glyph glyph-name="–" unicode="&#x2013;" horiz-adv-x="500" d=" M500,305 L500,244 L0,244 L0,305"/> 
            <glyph glyph-name="—" unicode="&#x2014;" horiz-adv-x="1000" d=" M1000,305 L1000,244 L0,244 L0,305"/> 
            <glyph glyph-name="‘" unicode="&#x2018;" horiz-adv-x="184" d=" M96,485 L96,595 Q96,639 120,677 Q144,715 184,727 L184,684 Q139,658 139,589 L178,589 L178,485"/> 
            <glyph glyph-name="’" unicode="&#x2019;" horiz-adv-x="181" d=" M181,712 L181,602 Q181,558 157,520 Q133,482 93,470 L93,513 Q138,539 138,608 L99,608 L99,712"/> 
            <glyph glyph-name="‚" unicode="&#x201A;" horiz-adv-x="181" d=" M181,104 L181,-6 Q181,-50 157,-88 Q133,-126 93,-138 L93,-96 Q138,-67 138,0 L99,0 L99,104"/> 
            <glyph glyph-name="“" unicode="&#x201C;" horiz-adv-x="306" d=" M222,487 L222,573 Q222,691 306,726 L306,684 Q262,658 262,588 L300,588 L300,487 M69,487 L69,573 Q69,691 153,726 L153,684 Q109,658 109,588 L147,588 L147,487"/> 
            <glyph glyph-name="”" unicode="&#x201D;" horiz-adv-x="299" d=" M146,712 L146,626 Q146,508 62,473 L62,515 Q106,541 106,611 L68,611 L68,712 M299,712 L299,626 Q299,508 215,473 L215,515 Q259,541 259,611 L221,611 L221,712"/> 
            <glyph glyph-name="„" unicode="&#x201E;" horiz-adv-x="299" d=" M146,101 L146,15 Q146,-103 62,-138 L62,-96 Q106,-70 106,0 L68,0 L68,101 M299,101 L299,15 Q299,-103 215,-138 L215,-96 Q259,-70 259,0 L221,0 L221,101"/> 
            <glyph glyph-name="†" unicode="&#x2020;" horiz-adv-x="508" d=" M508,492 L508,438 L306,438 L306,-151 L247,-151 L247,438 L48,438 L48,492 L247,492 L247,712 L306,712 L306,492"/> 
            <glyph glyph-name="‡" unicode="&#x2021;" horiz-adv-x="508" d=" M508,514 L508,460 L306,460 L306,101 L508,101 L508,47 L306,47 L306,-149 L247,-149 L247,47 L48,47 L48,101 L247,101 L247,460 L48,460 L48,514 L247,514 L247,712 L306,712 L306,514"/> 
            <glyph glyph-name="•" unicode="&#x2022;" horiz-adv-x="428" d=" M176,534 Q324,534 376,482 Q428,430 428,356 Q428,282 376,230 Q324,178 250,178 Q176,178 124,230 Q72,282 72,356 Q72,430 176,534"/> 
            <glyph glyph-name="…" unicode="&#x2026;" horiz-adv-x="868" d=" M132,0 L132,100 L202,100 L202,0 M465,0 L465,100 L535,100 L535,0 M798,0 L798,100 L868,100 L868,0"/> 
            <glyph glyph-name="‰" unicode="&#x2030;" horiz-adv-x="1051" d=" M634,728 L163,-33 L114,-33 L587,728 M548,327 Q619,327 658,284 Q697,241 697,163 Q697,79 659,34 Q621,-11 550,-11 Q476,-11 437.5,31.5 Q399,74 399,157 Q399,239 437.5,283 Q476,327 548,327 M902,328 Q975,328 1013,283 Q1051,238 1051,162 Q1051,80 1011.5,34.5 Q972,-11 902,-11 Q829,-11 790.5,32 Q752,75 752,156 Q752,239 791,283.5 Q830,328 902,328 M141,708 Q283,708 322,664 Q361,620 361,540 Q361,460 321,414.5 Q281,369 210,369 Q139,369 100.5,413 Q62,457 62,538 Q62,619 141,708 M548,286 Q453,286 453,154 Q453,31 549,31 Q643,31 643,160 Q643,221 618.5,253.5 Q594,286 548,286 M902,286 Q855,286 830,252.5 Q805,219 805,157 Q805,96 830,63.5 Q855,31 902,31 Q996,31 996,160 Q996,286 902,286 M258,666 Q166,666 141,632 Q116,598 116,535 Q116,411 211,411 Q257,411 282,443.5 Q307,476 307,538 Q307,600 258,666"/> 
            <glyph glyph-name="‹" unicode="&#x2039;" horiz-adv-x="186" d=" M186,422 L186,355 L93,266 L186,177 L186,110 L53,235 L53,297"/> 
            <glyph glyph-name="›" unicode="&#x203A;" horiz-adv-x="206" d=" M74,423 L206,298 L206,235 L74,111 L74,178 L167,267 L74,356"/> 
            <glyph glyph-name="№" unicode="&#x2116;" horiz-adv-x="934" d=" M933,277 Q933,211 894.5,171.5 Q856,132 792,132 Q727,132 690,170 Q653,208 653,277 Q653,345 690,383.5 Q727,422 790,422 Q856,422 894.5,383 Q933,344 933,277 M934,0 L654,0 L654,53 L934,53 M593,0 L517,0 L141,581 L139,581 L139,0 L71,0 L71,691 L147,691 L523,110 L525,110 L525,691 L593,691 M881,231 Q881,323 856,350.5 Q831,378 793,378 Q755,378 730,350.5 Q705,323 705,277 Q705,232 730,204 Q755,176 791,176 Q831,176 881,231"/> 
            <glyph glyph-name="™" unicode="&#x2122;" horiz-adv-x="824" d=" M244,356 L244,675 L119,675 L119,712 L410,712 L410,675 L285,675 L285,356 M476,356 L476,712 L538,712 L651,417 L764,712 L824,712 L824,356 L787,356 L787,671 L667,356 L632,356 L513,671 L513,356"/> 
            <glyph glyph-name="∆" unicode="&#x2206;" horiz-adv-x="652" d=" M364,712 L652,0 L16,0 L301,712 M93,52 L572,52 L332,660"/> 
            <glyph glyph-name="√" unicode="&#x221A;" horiz-adv-x="508" d=" M508,786 L298,-214 L243,-214 L75,132 L30,110 L11,150 L99,194 L265,-153 L459,786"/> 
            <glyph glyph-name="∞" unicode="&#x221E;" horiz-adv-x="682" d=" M362,276 Q365,279 387.5,300 Q410,321 417,327 Q424,333 444.5,349 Q465,365 478,370.5 Q491,376 510,382 Q529,388 547,388 Q606,388 644,349 Q682,310 682,249 Q682,187 645,148.5 Q608,110 550,110 Q507,110 466,133 Q425,156 362,215 Q356,210 321.5,181 Q287,152 273,143 Q259,134 230,122 Q201,110 172,110 Q114,110 77,148 Q40,186 40,246 Q40,307 77,347 Q114,387 171,387 Q184,387 198.5,383.5 Q213,380 224,376.5 Q235,373 250.5,363.5 Q266,354 274,349 Q282,344 299,330 Q316,316 320.5,312.5 Q325,309 343,293 Q361,277 362,276 M395,246 Q423,221 442,205 Q461,189 492.5,173.5 Q524,158 552,158 Q589,158 611.5,182.5 Q634,207 634,246 Q634,289 611,314.5 Q588,340 549,340 Q539,340 527.5,337 Q516,334 507,330.5 Q498,327 485.5,319 Q473,311 466,306 Q459,301 446,290.5 Q433,280 428,275.5 Q423,271 410,259.5 Q397,248 395,246 M328,246 Q327,247 312.5,259 Q298,271 294,274.5 Q290,278 275.5,289.5 Q261,301 254,305.5 Q247,310 234,318 Q221,326 211.5,329.5 Q202,333 191,336 Q180,339 170,339 Q135,339 111.5,313 Q88,287 88,247 Q88,207 111.5,182.5 Q135,158 174,158 Q240,158 328,246"/> 
            <glyph glyph-name="≈" unicode="&#x2248;" horiz-adv-x="557" d=" M557,400 Q552,345 522,308 Q492,271 439,271 Q400,271 303,304 Q298,306 260,319.5 Q222,333 198.5,339 Q175,345 156,345 Q125,345 102,322 Q79,299 74,262 L35,262 Q46,322 72.5,357.5 Q99,393 156,393 Q196,393 311,353 Q315,351 339,342.5 Q363,334 374.5,330 Q386,326 405,322 Q424,318 438,318 Q503,318 521,400 M557,239 Q552,184 522,147 Q492,110 439,110 Q400,110 303,143 Q298,145 260,158.5 Q222,172 198.5,178 Q175,184 156,184 Q125,184 102,161 Q79,138 74,101 L35,101 Q46,161 72.5,196.5 Q99,232 156,232 Q196,232 311,192 Q315,190 339,181.5 Q363,173 374.5,169 Q386,165 405,161 Q424,157 438,157 Q503,157 521,239"/> 
            <glyph glyph-name="≠" unicode="&#x2260;" horiz-adv-x="548" d=" M233,185 L304,320 L51,320 L51,368 L331,368 L408,513 L450,491 L384,368 L548,368 L548,320 L358,320 L286,185 L548,185 L548,137 L260,137 L185,-4 L143,19 L207,137 L51,137 L51,185"/> 
            <glyph glyph-name="≤" unicode="&#x2264;" horiz-adv-x="549" d=" M52,260 L52,314 L549,507 L549,453 L118,287 L549,121 L549,68 M52,23 L549,23 L549,-25 L52,-25"/> 
            <glyph glyph-name="≥" unicode="&#x2265;" horiz-adv-x="548" d=" M548,260 L51,68 L51,121 L481,287 L51,453 L51,507 L548,314 M548,23 L548,-25 L51,-25 L51,23"/> 
            <glyph glyph-name="" unicode="&#xE000;" horiz-adv-x="311" d=" M311,305 L311,244 L60,244 L60,305"/> 
            <glyph glyph-name=" " unicode="&#x20;" horiz-adv-x="158" d=" M154,712 L154,503 L139,179 L102,179 L87,503 L87,712 M158,99 L158,0 L83,0 L83,99"/> 
            <glyph glyph-name="!" unicode="&#x21;" horiz-adv-x="286" d=" M131,411 L91,411 L84,691 L138,691 M279,411 L240,411 L233,691 L286,691"/> 
            <glyph glyph-name="&quot;" unicode="&#x22;" horiz-adv-x="540" d=" M146,0 L92,0 L131,211 L18,211 L17,259 L140,259 L172,433 L59,433 L59,481 L181,481 L220,691 L274,691 L235,481 L372,481 L411,691 L465,691 L426,481 L540,481 L540,433 L417,433 L385,259 L498,259 L499,211 L376,211 L337,0 L283,0 L322,211 L185,211 M331,259 L363,433 L226,433 L194,259"/> 
            <glyph glyph-name="#" unicode="&#x23;" horiz-adv-x="525" d=" M292,782 L292,710 Q391,709 447.5,660 Q504,611 504,525 L504,515 L443,515 Q443,587 404.5,620.5 Q366,654 292,658 L292,385 Q525,351 525,184 Q525,94 461,39.5 Q397,-15 292,-15 L292,-102 L255,-102 L255,-15 Q142,-13 82.5,43.5 Q23,100 23,206 L23,211 L85,211 L85,199 Q85,47 255,36 L255,334 Q152,356 98,396 Q44,436 44,520 Q44,602 100.5,653 Q157,704 255,710 L255,782 M255,393 L255,657 Q185,652 145,617 Q105,582 105,525 Q105,415 255,393 M292,326 L292,35 Q371,36 417,76.5 Q463,117 463,183 Q463,219 449.5,244.5 Q436,270 408.5,285.5 Q381,301 356.5,309 Q332,317 292,326"/> 
            <glyph glyph-name="$" unicode="&#x24;" horiz-adv-x="825" d=" M678,728 L254,-32 L202,-32 L627,728 M153,708 Q305,708 345,661 Q385,614 385,525 Q385,433 343.5,382 Q302,331 226,331 Q149,331 108.5,380 Q68,429 68,521 Q68,609 153,708 M331,665 Q123,665 123,517 Q123,448 149.5,411 Q176,374 226,374 Q276,374 303.5,413 Q331,452 331,523 M593,364 Q745,364 785,317 Q825,270 825,181 Q825,89 783.5,38 Q742,-13 666,-13 Q589,-13 548.5,36 Q508,85 508,177 Q508,265 593,364 M771,321 Q563,321 563,173 Q563,104 589.5,67 Q616,30 666,30 Q716,30 743.5,69 Q771,108 771,179"/> 
            <glyph glyph-name="%" unicode="&#x25;" horiz-adv-x="620" d=" M535,315 Q533,275 521,228.5 Q509,182 492,151 L620,0 L540,0 L459,99 Q384,-14 251,-14 Q157,-14 97.5,39.5 Q38,93 38,179 Q38,308 214,396 Q188,429 173,449.5 Q158,470 142.5,504 Q127,538 127,568 Q127,631 171.5,671 Q216,711 287,711 Q355,711 398.5,671 Q442,631 442,570 Q442,510 404,467 Q366,424 302,383 L452,198 Q473,253 476,315 M268,424 Q382,489 382,566 Q382,606 354,633 Q326,660 285,660 Q242,660 214,634 Q186,608 186,569 Q186,542 198.5,518 Q211,494 235.5,465 Q260,436 268,424 M248,356 Q171,307 147,283 Q101,237 101,180 Q101,121 146,79.5 Q191,38 256,38 Q359,38 423,141"/> 
            <glyph glyph-name="&amp;" unicode="&#x26;" horiz-adv-x="166" d=" M159,411 L119,411 L112,691 L166,691"/> 
            <glyph glyph-name="'" unicode="&#x27;" horiz-adv-x="242" d=" M242,-191 L192,-191 Q120,-64 85.5,37.5 Q51,139 51,262 Q51,377 89,504 Q127,631 192,718 L242,718 Q114,514 114,261 Q114,18 242,-191"/> 
            <glyph glyph-name="(" unicode="&#x28;" horiz-adv-x="192" d=" M192,262 Q192,139 157.5,37.5 Q123,-64 51,-191 L1,-191 Q129,18 129,261 Q129,514 1,718 L51,718 Q116,631 154,504 Q192,377 192,262"/> 
            <glyph glyph-name=")" unicode="&#x29;" horiz-adv-x="325" d=" M325,606 L208,567 L280,469 L249,445 L175,546 L102,446 L69,470 L141,567 L27,606 L40,644 L155,603 L155,725 L196,725 L196,603 L311,644"/> 
            <glyph glyph-name="*" unicode="&#x2A;" horiz-adv-x="548" d=" M272,0 L272,217 L51,217 L51,266 L272,266 L272,483 L326,483 L326,266 L548,266 L548,217 L326,217 L326,0"/> 
            <glyph glyph-name="+" unicode="&#x2B;" horiz-adv-x="181" d=" M181,103 L181,29 Q181,-37 164,-78 Q147,-119 93,-138 L93,-96 Q137,-78 138,0 L99,0 L99,103"/> 
            <glyph glyph-name="," unicode="&#x2C;" horiz-adv-x="311" d=" M311,305 L311,244 L60,244 L60,305"/> 
            <glyph glyph-name="-" unicode="&#x2D;" horiz-adv-x="181" d=" M181,103 L181,0 L99,0 L99,103"/> 
            <glyph glyph-name="." unicode="&#x2E;" horiz-adv-x="350" d=" M350,729 L38,-17 L-15,-17 L298,729"/> 
            <glyph glyph-name="/" unicode="&#x2F;" horiz-adv-x="522" d=" M277,703 Q522,703 522,340 Q522,-16 278,-16 Q34,-16 34,335 Q34,703 277,703 M278,647 Q231,647 196.5,625.5 Q162,604 144,573 Q126,542 115,496 Q104,450 101.5,414 Q99,378 99,333 Q99,38 278,38 Q456,38 456,342 Q456,647 278,647"/> 
            <glyph glyph-name="0" unicode="&#x30;" horiz-adv-x="345" d=" M345,698 L345,0 L279,0 L279,520 L98,520 L98,568 Q136,569 153,570.5 Q170,572 195,576 Q220,580 231.5,588 Q243,596 257,610 Q271,624 279,645.5 Q287,667 294,698"/> 
            <glyph glyph-name="1" unicode="&#x31;" horiz-adv-x="497" d=" M497,56 L497,0 L36,0 Q38,28 42.5,52.5 Q47,77 58.5,99 Q70,121 78.5,137 Q87,153 107.5,173 Q128,193 138,203 Q148,213 175.5,232.5 Q203,252 213,258.5 Q223,265 256,287 Q292,311 306,320.5 Q320,330 350,354.5 Q380,379 393,398 Q406,417 418,445.5 Q430,474 430,505 Q430,570 387.5,609.5 Q345,649 275,649 Q190,649 152.5,596 Q115,543 115,457 L53,457 L53,466 Q53,577 113,640.5 Q173,704 278,704 Q376,704 435,650 Q494,596 494,506 Q494,477 485.5,449.5 Q477,422 468,402 Q459,382 436,357.5 Q413,333 400.5,320.5 Q388,308 356,285.5 Q324,263 313,256 Q302,249 267,226 Q228,201 213.5,191 Q199,181 169.5,156.5 Q140,132 126,108 Q112,84 107,55 Q111,55 116.5,55.5 Q122,56 124,56"/> 
            <glyph glyph-name="2" unicode="&#x32;" horiz-adv-x="512" d=" M50,475 Q51,583 111,643 Q171,703 277,703 Q371,703 429,653.5 Q487,604 487,524 Q487,467 455.5,426 Q424,385 369,372 Q438,358 475,313.5 Q512,269 512,201 Q512,104 445.5,44 Q379,-16 271,-16 Q162,-16 97.5,44.5 Q33,105 33,207 L33,223 L94,223 L94,220 Q94,135 141.5,87 Q189,39 273,39 Q350,39 399,82.5 Q448,126 448,194 Q448,273 396.5,307 Q345,341 264,341 Q245,341 230,340 L230,393 L256,393 Q308,393 340,404 Q423,435 423,521 Q423,580 382.5,615 Q342,650 274,650 Q198,650 155,604.5 Q112,559 109,475"/> 
            <glyph glyph-name="3" unicode="&#x33;" horiz-adv-x="517" d=" M517,226 L517,174 L411,174 L411,0 L353,0 L353,174 L30,174 L30,233 L358,700 L411,700 L411,226 M353,226 L353,502 Q353,569 354,617 Q244,446 81,226"/> 
            <glyph glyph-name="4" unicode="&#x34;" horiz-adv-x="509" d=" M474,691 L474,635 L171,635 L121,393 Q176,463 280,463 Q380,463 444.5,397 Q509,331 509,228 Q509,124 441,54.5 Q373,-15 268,-15 Q164,-15 101,43.5 Q38,102 36,200 L98,200 Q102,126 147.5,82 Q193,38 268,38 Q344,38 394.5,91 Q445,144 445,224 Q445,306 395,357.5 Q345,409 267,409 Q166,409 112,328 L56,330 L125,691"/> 
            <glyph glyph-name="5" unicode="&#x35;" horiz-adv-x="520" d=" M503,522 L440,522 Q431,582 392.5,616.5 Q354,651 293,651 Q245,651 209,629 Q173,607 154,576 Q135,545 122.5,497.5 Q110,450 106.5,414.5 Q103,379 101,332 Q129,391 179.5,422.5 Q230,454 296,454 Q394,454 457,389 Q520,324 520,224 Q520,120 454,52 Q388,-16 286,-16 Q223,-16 172,12 Q121,40 89,91 Q41,169 41,328 Q41,510 106.5,607.5 Q172,705 295,705 Q383,705 437.5,657.5 Q492,610 503,522 M284,401 Q211,401 163,350.5 Q115,300 115,223 Q115,143 163.5,91 Q212,39 286,39 Q360,39 407.5,90 Q455,141 455,220 Q455,300 407.5,350.5 Q360,401 284,401"/> 
            <glyph glyph-name="6" unicode="&#x36;" horiz-adv-x="502" d=" M502,691 L502,634 Q379,504 305,342 Q231,180 218,0 L150,0 Q159,170 238,339 Q317,508 441,632 L51,632 L51,691"/> 
            <glyph glyph-name="7" unicode="&#x37;" horiz-adv-x="518" d=" M180,378 Q126,393 96,432.5 Q66,472 66,528 Q66,609 124,658 Q182,707 278,707 Q374,707 431.5,659 Q489,611 489,532 Q489,414 376,378 Q442,364 480,317.5 Q518,271 518,203 Q518,103 453.5,45 Q389,-13 277,-13 Q168,-13 103,44 Q38,101 38,197 Q38,267 75,314.5 Q112,362 180,378 M278,651 Q209,651 168.5,617 Q128,583 128,525 Q128,468 169,434.5 Q210,401 278,401 Q347,401 387,434.5 Q427,468 427,526 Q427,585 387.5,618 Q348,651 278,651 M276,351 Q197,351 149.5,309 Q102,267 102,199 Q102,127 150,83.5 Q198,40 278,40 Q358,40 405.5,83 Q453,126 453,199 Q453,268 405,309.5 Q357,351 276,351"/> 
            <glyph glyph-name="8" unicode="&#x38;" horiz-adv-x="512" d=" M52,167 L113,167 Q122,108 163,73.5 Q204,39 265,39 Q430,39 448,294 Q450,317 450,346 L450,365 Q397,236 258,236 Q160,236 97,301 Q34,366 34,467 Q34,571 100,638.5 Q166,706 267,706 Q394,706 460,606 Q512,526 512,363 Q512,255 492,180 Q467,86 407.5,35.5 Q348,-15 264,-15 Q175,-15 117,34.5 Q59,84 52,167 M265,651 Q193,651 145.5,599.5 Q98,548 98,470 Q98,391 145,341.5 Q192,292 266,292 Q341,292 388.5,341.5 Q436,391 436,469 Q436,548 387.5,599.5 Q339,651 265,651"/> 
            <glyph glyph-name="9" unicode="&#x39;" horiz-adv-x="181" d=" M181,103 L181,0 L99,0 L99,103 M181,501 L181,398 L99,398 L99,501"/> 
            <glyph glyph-name=":" unicode="&#x3A;" horiz-adv-x="181" d=" M181,501 L181,398 L99,398 L99,501 M181,103 L181,29 Q181,-37 164,-78 Q147,-119 93,-138 L93,-96 Q137,-78 138,0 L99,0 L99,103"/> 
            <glyph glyph-name=";" unicode="&#x3B;" horiz-adv-x="545" d=" M48,233 L48,287 L545,487 L545,433 L110,260 L545,88 L545,35"/> 
            <glyph glyph-name="&lt;" unicode="&#x3C;" horiz-adv-x="548" d=" M51,320 L51,368 L548,368 L548,320 M51,137 L51,185 L548,185 L548,137"/> 
            <glyph glyph-name="=" unicode="&#x3D;" horiz-adv-x="552" d=" M552,233 L55,35 L55,88 L490,260 L55,433 L55,487 L552,287"/> 
            <glyph glyph-name="&gt;" unicode="&#x3E;" horiz-adv-x="478" d=" M49,490 Q49,593 105.5,659.5 Q162,726 270,726 Q363,726 420.5,675 Q478,624 478,542 Q478,508 470,480.5 Q462,453 439.5,424.5 Q417,396 405.5,384.5 Q394,373 358,339 Q316,299 305.5,269.5 Q295,240 295,176 L235,176 Q235,260 253,296 Q271,332 336,396 Q344,404 349,409 Q412,472 412,538 Q412,597 372.5,634 Q333,671 269,671 Q188,671 149,619 Q110,567 110,490 M302,100 L302,0 L227,0 L227,100"/> 
            <glyph glyph-name="?" unicode="&#x3F;" horiz-adv-x="770" d=" M704,118 L724,92 Q579,-13 419,-13 Q256,-13 143,85 Q30,183 30,344 Q30,506 146.5,615 Q263,724 436,724 Q584,724 677,642 Q770,560 770,430 Q770,325 709.5,247.5 Q649,170 567,170 Q533,170 512,189 Q491,208 491,239 Q491,249 498,276 Q444,170 351,170 Q292,170 255,211 Q218,252 218,317 Q218,413 277,485 Q336,557 415,557 Q465,557 497.5,532 Q530,507 538,462 L562,543 L612,543 L555,353 Q532,278 532,249 Q532,229 545,217 Q558,205 580,205 Q639,205 687,274.5 Q735,344 735,430 Q735,545 652,617 Q569,689 435,689 Q278,689 172,589.5 Q66,490 66,343 Q66,198 169.5,110 Q273,22 420,22 Q571,22 704,118 M513,426 Q513,469 489,495.5 Q465,522 426,522 Q369,522 323,459 Q277,396 277,318 Q277,266 301,235.5 Q325,205 365,205 Q409,205 444.5,245 Q480,285 496.5,334.5 Q513,384 513,426"/> 
            <glyph glyph-name="@" unicode="&#x40;" horiz-adv-x="638" d=" M354,714 L638,0 L563,0 L477,224 L151,224 L64,0 L-9,0 L279,714 M456,279 L316,650 L172,279"/> 
            <glyph glyph-name="A" unicode="&#x41;" horiz-adv-x="628" d=" M72,712 L377,712 Q473,712 536.5,668 Q600,624 600,534 Q600,477 564.5,433 Q529,389 477,377 Q543,364 585.5,322 Q628,280 628,204 Q628,105 559.5,52.5 Q491,0 387,0 L72,0 M138,654 L138,397 L364,397 Q435,397 484,427 Q533,457 533,525 Q533,565 517.5,592 Q502,619 473,632 Q444,645 414.5,649.5 Q385,654 346,654 M138,342 L138,58 L351,58 Q394,58 426.5,63 Q459,68 491.5,82.5 Q524,97 542,127.5 Q560,158 560,203 Q560,246 541.5,275.5 Q523,305 489,318.5 Q455,332 422,337 Q389,342 347,342"/> 
            <glyph glyph-name="B" unicode="&#x42;" horiz-adv-x="671" d=" M671,273 Q660,141 576.5,62.5 Q493,-16 365,-16 Q217,-16 128,85 Q39,186 39,355 Q39,513 127.5,621 Q216,729 371,729 Q479,729 564.5,665.5 Q650,602 662,498 L594,498 Q578,577 517,623.5 Q456,670 369,670 Q251,670 178.5,583.5 Q106,497 106,355 Q106,213 177.5,127.5 Q249,42 367,42 Q470,42 531,105.5 Q592,169 604,273"/> 
            <glyph glyph-name="C" unicode="&#x43;" horiz-adv-x="647" d=" M71,712 L329,712 Q489,712 568,619.5 Q647,527 647,369 Q647,207 570,103.5 Q493,0 335,0 L71,0 M139,654 L139,58 L318,58 Q579,58 579,365 Q579,501 514.5,577.5 Q450,654 329,654"/> 
            <glyph glyph-name="D" unicode="&#x44;" horiz-adv-x="570" d=" M566,712 L566,654 L140,654 L140,397 L539,397 L539,340 L140,340 L140,58 L570,58 L570,0 L72,0 L72,712"/> 
            <glyph glyph-name="E" unicode="&#x45;" horiz-adv-x="525" d=" M525,712 L525,654 L138,654 L138,398 L482,398 L482,340 L138,340 L138,0 L71,0 L71,712"/> 
            <glyph glyph-name="F" unicode="&#x46;" horiz-adv-x="683" d=" M683,362 L683,0 L638,0 L626,101 L624,133 Q592,62 526.5,22.5 Q461,-17 374,-17 Q225,-17 132,84.5 Q39,186 39,349 Q39,517 132.5,622 Q226,727 377,727 Q492,727 574,664.5 Q656,602 673,492 L608,492 Q593,574 528.5,621.5 Q464,669 378,669 Q254,669 180,582 Q106,495 106,350 Q106,209 180.5,124.5 Q255,40 377,40 Q472,40 538.5,95.5 Q605,151 619,243 Q623,271 623,306 L379,306 L379,362"/> 
            <glyph glyph-name="G" unicode="&#x47;" horiz-adv-x="632" d=" M632,712 L632,0 L565,0 L565,344 L139,344 L139,0 L71,0 L71,712 L139,712 L139,402 L565,402 L565,712"/> 
            <glyph glyph-name="H" unicode="&#x48;" horiz-adv-x="145" d=" M145,712 L145,0 L77,0 L77,712"/> 
            <glyph glyph-name="I" unicode="&#x49;" horiz-adv-x="430" d=" M430,712 L430,193 Q430,-16 229,-16 Q121,-16 72.5,39 Q24,94 24,202 Q24,216 25,230 L90,230 L90,209 Q90,124 118.5,82 Q147,40 229,40 Q309,40 336,84 Q363,128 363,211 L363,712"/> 
            <glyph glyph-name="J" unicode="&#x4A;" horiz-adv-x="659" d=" M643,712 L322,421 L659,0 L572,0 L274,375 L138,251 L138,0 L71,0 L71,712 L138,712 L138,329 L553,712"/> 
            <glyph glyph-name="K" unicode="&#x4B;" horiz-adv-x="541" d=" M541,58 L541,0 L73,0 L73,712 L141,712 L141,58"/> 
            <glyph glyph-name="L" unicode="&#x4C;" horiz-adv-x="763" d=" M763,712 L763,0 L698,0 L698,430 Q698,534 706,654 Q685,588 659,525 L449,0 L388,0 L175,519 Q153,572 128,650 Q136,533 136,432 L136,0 L71,0 L71,712 L163,712 L370,204 Q380,179 419,70 Q424,83 440,130 Q456,177 466,202 L670,712"/> 
            <glyph glyph-name="M" unicode="&#x4D;" horiz-adv-x="632" d=" M632,712 L632,0 L557,0 L226,478 Q160,574 132,630 Q137,559 137,460 L137,0 L71,0 L71,712 L146,712 L479,229 Q535,148 572,80 Q567,237 567,268 L567,712"/> 
            <glyph glyph-name="N" unicode="&#x4E;" horiz-adv-x="706" d=" M370,729 Q519,729 612.5,625 Q706,521 706,354 Q706,188 613,85.5 Q520,-17 369,-17 Q219,-17 127,86 Q35,189 35,356 Q35,523 127.5,626 Q220,729 370,729 M369,670 Q250,670 176.5,584 Q103,498 103,358 Q103,215 176,128.5 Q249,42 370,42 Q491,42 564.5,128 Q638,214 638,355 Q638,496 564,583 Q490,670 369,670"/> 
            <glyph glyph-name="O" unicode="&#x4F;" horiz-adv-x="604" d=" M75,712 L380,712 Q483,712 543.5,660.5 Q604,609 604,512 Q604,410 543,357 Q482,304 378,304 L143,304 L143,0 L75,0 M143,654 L143,361 L359,361 Q438,361 487,396.5 Q536,432 536,507 Q536,581 491,617.5 Q446,654 366,654"/> 
            <glyph glyph-name="P" unicode="&#x50;" horiz-adv-x="705" d=" M701,-5 L667,-48 L555,37 Q485,-18 371,-18 Q221,-18 128,84.5 Q35,187 35,352 Q35,519 128,622.5 Q221,726 370,726 Q519,726 612,623 Q705,520 705,355 Q705,177 600,72 M549,110 Q638,209 638,356 Q638,495 564,581 Q490,667 370,667 Q251,667 177,580.5 Q103,494 103,354 Q102,211 176,125.5 Q250,40 374,40 Q448,40 503,78 L409,149 L444,192"/> 
            <glyph glyph-name="Q" unicode="&#x51;" horiz-adv-x="636" d=" M72,712 L394,712 Q495,712 555.5,664.5 Q616,617 616,520 Q616,451 579.5,405.5 Q543,360 477,344 Q542,332 569.5,294.5 Q597,257 602,183 Q602,181 603,156 Q604,131 605.5,113 Q607,95 610.5,70 Q614,45 620.5,27 Q627,9 636,0 L559,0 Q550,11 546,39 Q542,67 540,111 Q538,155 538,158 Q531,255 491,286.5 Q451,318 349,318 L140,318 L140,0 L72,0 M140,654 L140,372 L341,372 Q385,372 417,377 Q449,382 481.5,396 Q514,410 531.5,440.5 Q549,471 549,516 Q549,654 372,654"/> 
            <glyph glyph-name="R" unicode="&#x52;" horiz-adv-x="591" d=" M569,507 L503,507 Q499,586 446.5,627.5 Q394,669 305,669 Q221,669 174,634 Q127,599 127,535 Q127,512 132.5,494.5 Q138,477 152.5,464 Q167,451 179.5,442.5 Q192,434 220,425.5 Q248,417 265,412.5 Q282,408 319,400 Q359,391 384,385 Q409,379 441,369 Q473,359 492.5,349 Q512,339 533,324 Q554,309 565,291 Q576,273 583.5,248.5 Q591,224 591,194 Q591,121 550.5,72 Q510,23 452,4 Q394,-15 323,-15 Q190,-15 114.5,50 Q39,115 39,229 L39,235 L104,235 Q104,138 163.5,89 Q223,40 328,40 Q420,40 473,79 Q526,118 526,187 Q526,254 475.5,282.5 Q425,311 285,344 Q240,354 218.5,360 Q197,366 161,381 Q125,396 107.5,413.5 Q90,431 76,461 Q62,491 62,531 Q62,621 128.5,673.5 Q195,726 310,726 Q426,726 495,670.5 Q564,615 569,507"/> 
            <glyph glyph-name="S" unicode="&#x53;" horiz-adv-x="562" d=" M562,712 L562,654 L312,654 L312,0 L244,0 L244,654 L-6,654 L-6,712"/> 
            <glyph glyph-name="T" unicode="&#x54;" horiz-adv-x="620" d=" M620,712 L620,267 Q620,129 551.5,57 Q483,-15 346,-15 Q206,-15 135.5,57 Q65,129 65,269 L65,712 L133,712 L133,286 Q133,163 179.5,102.5 Q226,42 347,42 Q409,42 450,59 Q491,76 513,110 Q535,144 543.5,186 Q552,228 552,287 L552,712"/> 
            <glyph glyph-name="U" unicode="&#x55;" horiz-adv-x="601" d=" M601,712 L337,0 L258,0 L-9,712 L67,712 L253,200 Q279,128 298,58 Q304,76 319,124.5 Q334,173 344,199 L529,712"/> 
            <glyph glyph-name="V" unicode="&#x56;" horiz-adv-x="904" d=" M904,712 L707,0 L634,0 L489,501 Q461,600 453,648 Q445,622 432.5,573 Q420,524 414,503 L272,0 L198,0 L1,712 L72,712 L205,218 Q218,169 238,71 Q249,133 274,218 L415,712 L492,712 L636,211 Q663,118 670,71 Q674,87 684.5,135.5 Q695,184 702,210 L836,712"/> 
            <glyph glyph-name="W" unicode="&#x57;" horiz-adv-x="583" d=" M569,712 L326,366 L583,0 L501,0 L323,255 Q302,285 296,296.5 Q290,308 285,316 Q280,311 272.5,300 Q265,289 256,275 Q247,261 244,256 L64,0 L-14,0 L245,366 L2,712 L82,712 L241,484 Q250,471 264.5,446.5 Q279,422 285,413 Q310,449 331,485 L494,712"/> 
            <glyph glyph-name="X" unicode="&#x58;" horiz-adv-x="622" d=" M622,712 L340,294 L340,0 L273,0 L273,294 L-10,712 L71,712 L270,414 L309,351 Q326,383 345,411 L545,712"/> 
            <glyph glyph-name="Y" unicode="&#x59;" horiz-adv-x="562" d=" M552,712 L552,653 L82,58 L562,58 L562,0 L5,0 L5,61 L475,654 L38,654 L38,712"/> 
            <glyph glyph-name="Z" unicode="&#x5A;" horiz-adv-x="238" d=" M238,722 L238,673 L135,673 L135,-134 L238,-134 L238,-184 L76,-184 L76,722"/> 
            <glyph glyph-name="[" unicode="&#x5B;" horiz-adv-x="350" d=" M350,-17 L297,-17 L-15,729 L37,729"/> 
            <glyph glyph-name="\" unicode="&#x5C;" horiz-adv-x="165" d=" M165,722 L165,-184 L3,-184 L3,-134 L106,-134 L106,672 L3,672 L3,722"/> 
            <glyph glyph-name="]" unicode="&#x5D;" horiz-adv-x="494" d=" M106,297 L274,712 L327,712 L494,297 L437,297 L299,649 L164,297"/> 
            <glyph glyph-name="^" unicode="&#x5E;" horiz-adv-x="500" d=" M0,-125 L0,-75 L500,-75 L500,-125"/> 
            <glyph glyph-name="_" unicode="&#x5F;" horiz-adv-x="151" d=" M47,734 L151,593 L101,593 L-33,734"/> 
            <glyph glyph-name="`" unicode="&#x60;" horiz-adv-x="511" d=" M511,51 L511,3 Q488,-5 461,-5 Q420,-5 407,20 Q394,45 394,89 Q329,-14 200,-14 Q121,-14 76.5,24 Q32,62 32,130 Q32,269 223,289 Q233,290 251,291.5 Q269,293 277.5,294 Q286,295 299.5,296.5 Q313,298 319.5,299 Q326,300 335.5,302 Q345,304 350.5,306 Q356,308 362,310.5 Q368,313 373,316 Q391,328 391,365 Q391,426 357,451 Q323,476 257,476 Q192,476 157.5,446.5 Q123,417 117,355 L57,355 Q61,438 115,483 Q169,528 264,528 Q352,528 402.5,490 Q453,452 453,380 L453,100 Q453,80 454,71.5 Q455,63 462.5,55.5 Q470,48 487,48 Q500,48 511,51 M391,280 Q382,270 361.5,263.5 Q341,257 324,254 Q307,251 266,246 Q256,245 251,244 Q219,240 198.5,235 Q178,230 151.5,218.5 Q125,207 111.5,186.5 Q98,166 98,136 Q98,91 130,64.5 Q162,38 216,38 Q289,38 340,81.5 Q391,125 391,196"/> 
            <glyph glyph-name="a" unicode="&#x61;" horiz-adv-x="535" d=" M122,712 L122,417 Q145,471 193.5,500.5 Q242,530 305,530 Q410,530 472.5,456 Q535,382 535,258 Q535,132 472,58.5 Q409,-15 302,-15 Q236,-15 188,14.5 Q140,44 118,100 L118,0 L61,0 L61,712 M296,477 Q215,477 167.5,417.5 Q120,358 120,257 Q120,156 168,96 Q216,36 297,36 Q376,36 423.5,96 Q471,156 471,257 Q471,358 423.5,417.5 Q376,477 296,477"/> 
            <glyph glyph-name="b" unicode="&#x62;" horiz-adv-x="491" d=" M491,184 Q478,94 421.5,39.5 Q365,-15 274,-15 Q166,-15 101,58 Q36,131 36,252 Q36,378 101.5,453.5 Q167,529 276,529 Q365,529 420.5,482 Q476,435 487,352 L423,352 Q398,477 277,477 Q196,477 148.5,417.5 Q101,358 101,257 Q101,156 147,96.5 Q193,37 271,37 Q336,37 377,75.5 Q418,114 428,184"/> 
            <glyph glyph-name="c" unicode="&#x63;" horiz-adv-x="512" d=" M512,712 L512,0 L455,0 L455,101 Q432,44 383.5,14.5 Q335,-15 270,-15 Q163,-15 100.5,58.5 Q38,132 38,257 Q38,381 100.5,455 Q163,529 268,529 Q402,529 451,418 L451,712 M275,477 Q196,477 148.5,417.5 Q101,358 101,258 Q101,156 148.5,96 Q196,36 276,36 Q358,36 405.5,95 Q453,154 453,257 Q453,349 408,413 Q363,477 275,477"/> 
            <glyph glyph-name="d" unicode="&#x64;" horiz-adv-x="493" d=" M488,169 Q471,82 414,32.5 Q357,-17 268,-17 Q161,-17 96.5,56 Q32,129 32,251 Q32,373 97.5,450.5 Q163,528 267,528 Q376,528 434.5,451 Q493,374 493,260 L493,242 L96,242 Q96,153 139.5,93.5 Q183,34 270,34 Q397,34 427,169 M430,293 Q425,379 381,427.5 Q337,476 265,476 Q187,476 146.5,425 Q106,374 96,293"/> 
            <glyph glyph-name="e" unicode="&#x65;" horiz-adv-x="272" d=" M272,713 L272,660 Q251,663 230,663 Q208,663 193.5,658 Q179,653 171.5,646.5 Q164,640 160.5,624.5 Q157,609 156.5,599 Q156,589 156,565 L156,514 L259,514 L259,463 L156,463 L156,0 L93,0 L93,463 L5,463 L5,514 L93,514 L93,573 Q93,646 122.5,681.5 Q152,717 224,717 Q243,717 272,713"/> 
            <glyph glyph-name="f" unicode="&#x66;" horiz-adv-x="496" d=" M496,514 L496,28 Q496,-202 266,-202 Q172,-202 117,-161.5 Q62,-121 57,-47 L120,-47 Q135,-153 269,-153 Q360,-153 398.5,-106 Q437,-59 437,33 L437,119 Q385,6 259,6 Q157,6 96.5,75.5 Q36,145 36,261 Q36,382 98.5,455 Q161,528 264,528 Q386,528 439,417 L439,514 M344,474 Q190,474 144.5,418 Q99,362 99,266 Q99,172 144,116 Q189,60 265,60 Q344,60 390,117.5 Q436,175 436,273 Q436,365 344,474"/> 
            <glyph glyph-name="g" unicode="&#x67;" horiz-adv-x="479" d=" M122,712 Q122,456 121,417 Q176,527 299,527 Q388,527 433.5,478.5 Q479,430 479,340 L479,0 L416,0 L416,332 Q416,474 284,474 Q201,474 161.5,417.5 Q122,361 122,271 L122,0 L60,0 L60,712"/> 
            <glyph glyph-name="h" unicode="&#x68;" horiz-adv-x="124" d=" M124,715 L124,612 L61,612 L61,715 M124,514 L124,0 L61,0 L61,514"/> 
            <glyph glyph-name="i" unicode="&#x69;" horiz-adv-x="127" d=" M127,514 L127,-34 Q127,-77 123.5,-102 Q120,-127 108.5,-151.5 Q97,-176 71,-186.5 Q45,-197 3,-197 Q-7,-197 -28,-194 L-28,-142 Q-17,-143 -4,-143 Q23,-143 35.5,-138.5 Q48,-134 56.5,-111 Q65,-88 65,-40 L65,514 M127,716 L127,613 L65,613 L65,716"/> 
            <glyph glyph-name="j" unicode="&#x6A;" horiz-adv-x="508" d=" M493,514 L273,325 L508,0 L429,0 L224,282 L122,195 L122,0 L62,0 L62,712 L122,712 L122,263 L409,514"/> 
            <glyph glyph-name="k" unicode="&#x6B;" horiz-adv-x="124" d=" M124,712 L124,0 L62,0 L62,712"/> 
            <glyph glyph-name="l" unicode="&#x6C;" horiz-adv-x="774" d=" M120,514 L120,424 Q153,476 193,502 Q233,528 291,528 Q347,528 385.5,501.5 Q424,475 438,428 Q491,528 609,528 Q679,528 726.5,487.5 Q774,447 774,367 L774,0 L711,0 L711,350 Q711,472 592,472 Q524,472 486.5,429.5 Q449,387 449,315 L449,0 L387,0 L387,345 Q387,472 274,472 Q199,472 161.5,422 Q124,372 124,292 L124,0 L61,0 L61,514"/> 
            <glyph glyph-name="m" unicode="&#x6D;" horiz-adv-x="479" d=" M119,514 L119,417 Q151,474 193.5,501 Q236,528 301,528 Q381,528 430,484 Q479,440 479,350 L479,0 L416,0 L416,330 Q416,473 285,473 Q211,473 167,423.5 Q123,374 123,278 L123,0 L60,0 L60,514"/> 
            <glyph glyph-name="n" unicode="&#x6E;" horiz-adv-x="521" d=" M279,529 Q390,529 455.5,455 Q521,381 521,255 Q521,130 456,57.5 Q391,-15 279,-15 Q167,-15 100.5,58.5 Q34,132 34,257 Q34,381 100.5,455 Q167,529 279,529 M360,476 Q196,476 147,416.5 Q98,357 98,257 Q98,155 146.5,96 Q195,37 280,37 Q362,37 410,96 Q458,155 458,256 Q458,357 360,476"/> 
            <glyph glyph-name="o" unicode="&#x6F;" horiz-adv-x="536" d=" M120,514 L120,415 Q176,529 304,529 Q409,529 472.5,454 Q536,379 536,255 Q536,133 473,58.5 Q410,-16 306,-16 Q176,-16 124,95 L124,-192 L63,-192 L63,514 M377,477 Q215,477 168.5,418 Q122,359 122,256 Q122,155 169.5,96 Q217,37 298,37 Q377,37 424.5,96.5 Q472,156 472,255 Q472,356 377,477"/> 
            <glyph glyph-name="p" unicode="&#x70;" horiz-adv-x="511" d=" M511,514 L511,-191 L449,-191 Q449,14 450,96 Q398,-14 266,-14 Q161,-14 99.5,58.5 Q38,131 38,255 Q38,381 101.5,455.5 Q165,530 272,530 Q400,530 453,416 L453,514 M276,478 Q196,478 148.5,418 Q101,358 101,255 Q101,155 148,96.5 Q195,38 275,38 Q356,38 403.5,97.5 Q451,157 451,259 Q451,361 404.5,419.5 Q358,478 276,478"/> 
            <glyph glyph-name="q" unicode="&#x71;" horiz-adv-x="323" d=" M323,522 L323,458 Q319,458 313.5,458.5 Q308,459 306,459 Q248,459 202.5,425.5 Q157,392 142,337 Q130,290 130,210 L130,0 L68,0 L68,514 L127,514 L127,391 Q160,462 203,491.5 Q246,521 323,522"/> 
            <glyph glyph-name="r" unicode="&#x72;" horiz-adv-x="447" d=" M429,364 L368,364 Q359,476 229,476 Q174,476 141.5,453 Q109,430 109,391 Q109,372 116,358 Q123,344 132,335.5 Q141,327 163.5,319 Q186,311 202.5,306.5 Q219,302 256,294 Q289,286 309,281 Q329,276 358.5,263.5 Q388,251 405,236.5 Q422,222 434.5,197.5 Q447,173 447,142 Q447,71 390.5,27.5 Q334,-16 243,-16 Q144,-16 89,32 Q34,80 32,168 L93,168 Q93,104 133,70 Q173,36 245,36 Q308,36 346.5,63.5 Q385,91 385,136 Q385,160 372.5,178 Q360,196 339,206.5 Q318,217 297.5,223.5 Q277,230 254,235 Q247,236 244,237 Q237,239 212,244.5 Q187,250 177,252.5 Q167,255 145,262 Q123,269 113,275 Q103,281 87.5,292 Q72,303 64.5,315.5 Q57,328 51.5,345 Q46,362 46,383 Q46,450 96.5,489 Q147,528 235,528 Q323,528 376,486 Q429,444 429,364"/> 
            <glyph glyph-name="s" unicode="&#x73;" horiz-adv-x="265" d=" M265,514 L265,463 L159,463 L159,137 Q159,111 160,100.5 Q161,90 166.5,75.5 Q172,61 186,56 Q200,51 224,51 Q238,51 265,54 L265,0 Q234,-4 210,-4 Q117,-4 103,55 Q97,80 97,168 L97,463 L6,463 L6,514 L97,514 L97,671 L159,671 L159,514"/> 
            <glyph glyph-name="t" unicode="&#x74;" horiz-adv-x="475" d=" M475,514 L475,0 L417,0 L417,95 Q360,-15 236,-15 Q154,-15 106.5,32.5 Q59,80 59,172 L59,514 L122,514 L122,199 Q122,119 151.5,79.5 Q181,40 252,40 Q327,40 370,94.5 Q413,149 413,230 L413,514"/> 
            <glyph glyph-name="u" unicode="&#x75;" horiz-adv-x="459" d=" M459,514 L270,0 L202,0 L4,514 L71,514 L191,201 Q205,163 238,62 Q268,158 285,206 L396,514"/> 
            <glyph glyph-name="v" unicode="&#x76;" horiz-adv-x="733" d=" M733,514 L566,0 L498,0 L396,338 Q383,382 370,439 Q356,381 344,338 L244,0 L174,0 L7,514 L75,514 L173,201 Q182,174 209,68 Q239,188 243,203 L335,514 L407,514 L505,188 Q514,159 534,68 Q550,136 565,186 L668,514"/> 
            <glyph glyph-name="w" unicode="&#x77;" horiz-adv-x="481" d=" M460,514 L278,274 L481,0 L401,0 L264,188 Q261,192 256.5,198.5 Q252,205 247.5,212 Q243,219 238,227 Q227,209 212,189 L76,0 L1,0 L200,270 L16,514 L96,514 L207,364 Q213,357 223.5,340.5 Q234,324 239,316 Q268,358 272,364 L386,514"/> 
            <glyph glyph-name="x" unicode="&#x78;" horiz-adv-x="460" d=" M460,514 L258,-19 Q220,-121 192,-158 Q164,-195 106,-195 Q81,-195 51,-190 L51,-135 Q79,-142 96,-142 Q134,-142 153.5,-114 Q173,-86 198,-17 Q199,-13 200,-11.5 Q201,-10 202,-7 Q203,-4 204,-1.5 Q205,1 206,4 L-1,514 L68,514 L207,160 Q215,139 238,69 Q264,154 269,167 L396,514"/> 
            <glyph glyph-name="y" unicode="&#x79;" horiz-adv-x="446" d=" M432,514 L432,470 L92,53 L446,53 L446,0 L16,0 L16,51 L350,461 L38,461 L38,514"/> 
            <glyph glyph-name="z" unicode="&#x7A;" horiz-adv-x="328" d=" M4,288 Q143,288 143,438 L143,514 Q143,620 183,668.5 Q223,717 328,723 L328,688 Q254,684 228,647 Q202,610 202,533 L202,468 Q202,427 197.5,398.5 Q193,370 180.5,341 Q168,312 141,294.5 Q114,277 73,271 Q116,263 143.5,246 Q171,229 183,200.5 Q195,172 198.5,144.5 Q202,117 202,73 L202,18 Q202,-67 227,-104.5 Q252,-142 328,-146 L328,-181 Q218,-174 180.5,-123.5 Q143,-73 143,41 L143,104 Q143,182 113,213.5 Q83,245 4,253"/> 
            <glyph glyph-name="{" unicode="&#x7B;" horiz-adv-x="138" d=" M84,-214 L84,786 L138,786 L138,-214"/> 
            <glyph glyph-name="|" unicode="&#x7C;" horiz-adv-x="328" d=" M328,253 Q249,245 219,213.5 Q189,182 189,104 L189,41 Q189,-73 151.5,-123.5 Q114,-174 4,-181 L4,-146 Q80,-142 105,-104.5 Q130,-67 130,18 L130,73 Q130,117 133.5,144.5 Q137,172 149,200.5 Q161,229 188.5,246 Q216,263 259,271 Q218,277 191,294.5 Q164,312 151.5,341 Q139,370 134.5,398.5 Q130,427 130,468 L130,533 Q130,610 104,647 Q78,684 4,688 L4,723 Q109,717 149,668.5 Q189,620 189,514 L189,438 Q189,288 328,288"/> 
            <glyph glyph-name="}" unicode="&#x7D;" horiz-adv-x="562" d=" M562,320 Q557,265 527,228 Q497,191 444,191 Q405,191 308,224 Q303,226 265,239.5 Q227,253 203.5,259 Q180,265 161,265 Q130,265 107,242 Q84,219 79,182 L40,182 Q51,242 77.5,277.5 Q104,313 161,313 Q201,313 316,273 Q320,271 344,262.5 Q368,254 379.5,250 Q391,246 410,242 Q429,238 443,238 Q508,238 526,320"/> 
            </font>
</defs>
</svg>
